<svg width="42" height="42" fill="none" xmlns="http://www.w3.org/2000/svg"><g clip-path="url(#clip0)"><path d="M41.032 18.21l-2.27-.214a11.753 11.753 0 00-1.11-2.63l1.441-1.743a1.065 1.065 0 00-.067-1.432l-2.832-2.876a1.07 1.07 0 00-1.444-.075l-1.735 1.444a12.338 12.338 0 00-2.61-1.112l-.213-2.267a1.068 1.068 0 00-1.067-.962h-3.536V3.134a1.07 1.07 0 00-1.067-1.068c-.584 0-1.067.482-1.067 1.068V8.48h-4.03a5.541 5.541 0 00-4.391 2.181l-4.392 5.806-7.387 2.02a4.427 4.427 0 00-3.252 4.267v2.832a4.426 4.426 0 004.424 4.403h.574a5.57 5.57 0 006.833 3.935 5.588 5.588 0 003.923-3.935h7.696v8.875a1.066 1.066 0 102.134 0v-2.566h3.536c.554 0 1.012-.414 1.067-.97l.214-2.277a12.396 12.396 0 002.623-1.102l1.735 1.444c.425.355 1.046.32 1.43-.065l2.867-2.871a1.087 1.087 0 00.067-1.448l-1.441-1.743c.466-.833.844-1.71 1.11-2.62l2.238-.209c.542-.059.967-.517.967-1.073v-4.097c0-.544-.425-1.003-.968-1.057zm-30.66 13.78a3.454 3.454 0 010-6.907 3.455 3.455 0 010 6.908zm13.08-4.148h-7.547a5.586 5.586 0 00-6.204-4.874c-2.537.308-4.541 2.321-4.862 4.874h-.426a2.278 2.278 0 01-2.292-2.267v-2.822a2.31 2.31 0 011.684-2.202l7.739-2.117c.224-.063.426-.192.565-.385l4.627-6.083a3.385 3.385 0 012.697-1.337h4.019v17.213zm2.131-11.066c2.494-.833 5.191.524 6.024 3.036a4.774 4.774 0 01-3.03 6.042 4.804 4.804 0 01-2.994 0v-9.078zm14.284 5.604l-2.025.191c-.46.043-.841.385-.938.835a10.142 10.142 0 01-1.418 3.357c-.254.395-.223.902.075 1.261l1.302 1.585-1.495 1.497-1.576-1.293c-.361-.3-.874-.332-1.27-.064a9.725 9.725 0 01-3.334 1.41c-.46.094-.79.479-.834.94l-.191 2.052h-2.58v-6.083a6.888 6.888 0 008.23-5.25c.833-3.732-1.512-7.432-5.234-8.265a6.73 6.73 0 00-2.992 0V8.491h2.569l.2 2.042c.043.46.384.845.833.94 1.192.267 2.324.749 3.348 1.412.395.256.9.224 1.259-.075l1.563-1.303 1.471 1.486-1.31 1.593c-.3.363-.33.877-.064 1.272a9.758 9.758 0 011.407 3.346c.105.46.48.792.949.834l2.055.203v2.139z" fill="#000"/></g><defs><clipPath id="clip0"><path fill="#fff" d="M0 0h42v42H0z"/></clipPath></defs></svg>