<svg width="42" height="42" fill="none" xmlns="http://www.w3.org/2000/svg"><rect x="6" y="38" width="13" height="6" rx="2" transform="rotate(-90 6 38)" stroke="#000" stroke-width="2"/><rect x="31" y="38" width="13" height="6" rx="2" transform="rotate(-90 31 38)" stroke="#000" stroke-width="2"/><rect x="6" y="17" width="13" height="6" rx="2" transform="rotate(-90 6 17)" stroke="#000" stroke-width="2"/><rect x="31" y="17" width="13" height="6" rx="2" transform="rotate(-90 31 17)" stroke="#000" stroke-width="2"/><path stroke="#000" stroke-width="2" d="M16 14V7h11v7zM17 36v-5.91c0-1.128.49-2.2 1.343-2.939a8.333 8.333 0 002.527-3.905L21.244 22h.512l.374 1.246a8.333 8.333 0 002.527 3.905A3.889 3.889 0 0126 30.091V36h-9zM21.5 21v-7M12 32h4M12 11h4M27 32h4M27 11h4"/></svg>