<svg width="42" height="42" fill="none" xmlns="http://www.w3.org/2000/svg"><path d="M21 14v23.333M35 21H7h28zm0 0a2.333 2.333 0 002.333-2.333v-2.334A2.333 2.333 0 0035 14H7a2.334 2.334 0 00-2.333 2.333v2.334A2.333 2.333 0 007 21h28zm0 0v11.667a4.666 4.666 0 01-4.667 4.666H11.667A4.667 4.667 0 017 32.667V21h28zm-14-7v-2.333V14zm0 0h-7.667a4 4 0 01-4-4v-.667A4.667 4.667 0 0114 4.667a7 7 0 017 7V14zm0 0h7.667a4 4 0 004-4v-.667A4.667 4.667 0 0028 4.667a7 7 0 00-7 7V14z" stroke="#000" stroke-width="2.5"/></svg>