<svg width="42" height="42" fill="none" xmlns="http://www.w3.org/2000/svg"><path d="M2.81 31.614a2.428 2.428 0 000 3.43l4.147 4.146c.457.458 1.066.71 1.714.71a2.41 2.41 0 001.715-.71L21.36 28.216a2.4 2.4 0 00.682-1.434l3.072 3.072a7.553 7.553 0 001.854 7.666 7.525 7.525 0 007.697 1.841c.01-.003.017-.008.026-.011a.816.816 0 00.08-.036c.025-.012.05-.024.072-.038.022-.013.042-.028.062-.043a.834.834 0 00.073-.06l.02-.016c.01-.01.019-.024.029-.036a.794.794 0 00.206-.44.919.919 0 00.006-.163.928.928 0 00-.026-.168c-.004-.016-.005-.032-.01-.047l-.012-.025a.866.866 0 00-.036-.081c-.012-.025-.023-.05-.038-.073-.013-.021-.027-.04-.043-.06a.833.833 0 00-.06-.075c-.006-.006-.01-.014-.017-.02l-2.845-2.846a1.195 1.195 0 01-.003-1.687l1.428-1.427c.224-.225.523-.349.84-.349h.002c.319 0 .618.125.844.35l2.847 2.847.02.016c.022.022.047.04.072.06a.782.782 0 00.133.081.781.781 0 00.083.037c.008.003.016.008.024.01.009.004.018.002.026.005a.85.85 0 00.233.037h.006a.859.859 0 00.228-.035l.045-.014a.828.828 0 00.202-.101l.031-.026c.029-.022.059-.043.085-.07.022-.021.038-.046.057-.07.01-.012.022-.024.032-.038a.822.822 0 00.107-.208l.008-.016a7.522 7.522 0 00-1.84-7.698 7.549 7.549 0 00-7.663-1.853l-5.016-5.017 8.717-8.719c.254-.253.597-.386.96-.359l.016.001a2.917 2.917 0 002.74-1.495l2.379-4.288a.84.84 0 00-.141-1.001l-.875-.875-.671-.672-.203-.203a.839.839 0 00-1.002-.14l-4.288 2.38a2.926 2.926 0 00-1.494 2.752c.025.358-.106.708-.359.96l-8.719 8.72-5.017-5.017a7.549 7.549 0 00-1.852-7.663 7.523 7.523 0 00-7.698-1.84c-.01.002-.016.007-.025.01a.793.793 0 00-.082.037.813.813 0 00-.07.037c-.022.013-.043.029-.063.044a.827.827 0 00-.073.06l-.02.016c-.01.011-.018.024-.029.036a.787.787 0 00-.191.363.86.86 0 00.006.41c.005.015.005.03.01.046.003.009.008.016.011.024.01.028.023.055.037.083a.82.82 0 00.037.071c.013.021.028.04.043.06.02.027.04.052.062.076l.015.018L9.99 6.736c.466.465.466 1.222.002 1.687L8.565 9.85a1.194 1.194 0 01-1.687-.002L4.031 7l-.02-.016a.782.782 0 00-.073-.06c-.02-.015-.04-.03-.061-.043a.708.708 0 00-.073-.038.744.744 0 00-.08-.035c-.009-.004-.017-.009-.026-.012-.015-.005-.031-.006-.047-.01a.918.918 0 00-.167-.027.87.87 0 00-.24.02.797.797 0 00-.231.095.807.807 0 00-.137.1c-.01.01-.022.016-.032.026l-.016.02a.875.875 0 00-.061.074c-.015.02-.03.04-.043.061-.014.023-.026.047-.038.072-.013.027-.026.054-.036.081-.003.01-.008.017-.011.025a7.53 7.53 0 001.84 7.697 7.552 7.552 0 005.347 2.219c.775 0 1.555-.126 2.315-.37l3.076 3.077a2.398 2.398 0 00-1.433.683L2.81 31.614zm26.378-5.076l.002.002.001.001c.015.015.033.026.05.04.024.021.048.044.075.062a.837.837 0 00.805.072 5.873 5.873 0 016.353 1.3 5.85 5.85 0 011.71 4.54l-1.732-1.732a2.858 2.858 0 00-2.032-.843h-.001a2.85 2.85 0 00-2.03.84l-1.427 1.428a2.877 2.877 0 00.002 4.062l1.732 1.732a5.85 5.85 0 01-4.54-1.71A5.876 5.876 0 0126.848 30a.828.828 0 00.222-.156l.709-.714a.84.84 0 00-1.192-1.184l-.501.504-3.563-3.562.013-.013c.756-.757.86-1.918.32-2.792l.938-.938 5.394 5.393zM31.95 9.486a2.918 2.918 0 00.847-2.266 1.24 1.24 0 01.634-1.167l3.734-2.072.854.854-2.073 3.734a1.23 1.23 0 01-1.166.634l-.017-.001a2.91 2.91 0 00-2.251.848L21.716 20.848l-.282-.281-.282-.282 1.485-1.485 9.313-9.314zM5.667 13.844a5.85 5.85 0 01-1.709-4.54l1.732 1.732c.56.56 1.297.841 2.033.841s1.47-.28 2.03-.839L11.18 9.61a2.876 2.876 0 00-.002-4.062L9.445 3.815a5.847 5.847 0 014.54 1.71 5.87 5.87 0 011.333 6.261.835.835 0 00-.112.092l-.71.714a.84.84 0 001.192 1.184l.368-.37 4.8 4.8-.938.937a2.246 2.246 0 00-2.795.323l-.01.01-4.144-4.143a.838.838 0 00-.922-.198 5.879 5.879 0 01-6.38-1.291zm10.36 7.984l.55.55a.84.84 0 001.192-1.182l.544-.544a.6.6 0 01.83 0l2.205 2.205a.589.589 0 01-.002.833l-.541.54-1.373-1.373a.84.84 0 00-1.188 1.188l1.929 1.929c.29.29.29.763 0 1.054L9.198 38.002a.763.763 0 01-1.054 0L4 33.856a.747.747 0 010-1.054l10.973-10.974a.763.763 0 011.054 0z" fill="#000"/><path d="M6.01 34.59c.214 0 .429-.082.593-.246l1.73-1.73a.84.84 0 00-1.188-1.188l-1.73 1.73a.84.84 0 00.594 1.434zM14.282 28.771l-6.626 6.626 1.188 1.188 6.626-6.626a.84.84 0 10-1.188-1.188z" fill="#000"/><path d="M9.274 31.324c.215 0 .43-.082.593-.246l5.046-5.04c.25-.25.659-.249.91.003l.153.152a.632.632 0 01-.013.9l1.2 1.175c.9-.9.9-2.363 0-3.263l-.152-.152a2.327 2.327 0 00-3.285-.003l-5.045 5.04a.84.84 0 00.593 1.434z" fill="#000"/></svg>