<svg width="43" height="42" fill="none" xmlns="http://www.w3.org/2000/svg"><path d="M8.795 8.664l-.263-.145.263.145C10.632 5.333 13.08 3.21 15.62 3.21h5.736c-4.564 2.864-7.716 9.693-7.716 17.57 0 7.876 3.152 14.707 7.715 17.57H15.62c-1.25 0-2.492-.565-3.66-1.587-1.167-1.023-2.246-2.49-3.161-4.251l-.267.138.267-.138c-1.833-3.526-2.96-8.116-2.96-12.148 0-4.03 1.13-8.386 2.956-11.699zm6.825-6.886c-3.34 0-6.141 2.667-8.085 6.194C5.58 11.517 4.4 16.082 4.4 20.363c0 4.281 1.184 9.055 3.131 12.801 1.935 3.722 4.718 6.616 8.089 6.616h10.5c3.495 0 6.623-2.178 8.862-5.616 2.24-3.44 3.618-8.174 3.618-13.385s-1.377-9.945-3.618-13.385c-2.24-3.438-5.367-5.616-8.862-5.616h-10.5zm10.5 1.639c3.043 0 5.835 1.891 7.88 5.034 2.045 3.14 3.317 7.496 3.317 12.328 0 4.832-1.272 9.189-3.316 12.328-2.045 3.143-4.838 5.034-7.881 5.034-3.044 0-5.836-1.891-7.881-5.034-2.044-3.14-3.317-7.496-3.317-12.328 0-4.832 1.273-9.189 3.317-12.328 2.045-3.143 4.837-5.034 7.88-5.034zm0 4.92c-2.314 0-4.371 1.442-5.836 3.692-1.467 2.253-2.365 5.347-2.365 8.75 0 3.403.898 6.5 2.365 8.756 1.464 2.253 3.522 3.7 5.836 3.7 2.314 0 4.371-1.447 5.836-3.7 1.466-2.256 2.365-5.353 2.365-8.756 0-3.403-.898-6.497-2.365-8.75-1.465-2.25-3.523-3.693-5.836-3.693zm0 1.625c1.861 0 3.584 1.159 4.855 3.117 1.27 1.955 2.064 4.676 2.064 7.7s-.794 5.748-2.064 7.707c-1.272 1.961-2.994 3.123-4.855 3.123-1.187 0-2.317-.476-3.311-1.326 2.168-3.436 3.296-6.663 3.296-9.868 0-3.103-1.065-6.139-3.104-9.277.947-.754 2.006-1.176 3.119-1.176zM19.2 20.78c0-3.54 1.087-6.656 2.747-8.622 1.826 2.88 2.717 5.562 2.717 8.258 0 2.773-.946 5.63-2.885 8.788-1.564-1.976-2.579-5.008-2.579-8.424z" fill="#000" stroke="#000" stroke-width=".6"/></svg>