<svg width="42" height="42" fill="none" xmlns="http://www.w3.org/2000/svg"><path d="M34.125 26.25H26.25v-2.625h7.875v2.625zM39.375 36.75H31.5v-2.625h7.875v2.625zM36.75 31.5h-7.875v-2.625h7.875V31.5z" fill="#000"/><path d="M22.317 26.25a6.425 6.425 0 00-3.156-5.477l9.714-16.835-2.27-1.313-9.945 17.228a7.48 7.48 0 00-6.882 1.973c-4.914 4.739-4.533 15.82-4.515 16.289a1.312 1.312 0 001.313 1.26h19.676a1.313 1.313 0 00.787-2.362c-4.646-3.486-4.722-10.692-4.722-10.763zm-6.659-3.941a4.081 4.081 0 014.035 3.941c0 .05.003.273.022.616l-7.743-3.444a4.985 4.985 0 013.686-1.113zm4.62 14.441a6.825 6.825 0 01-1.903-3.938H15.75a8.53 8.53 0 001.27 3.938h-2.917a21.806 21.806 0 01-.978-5.25H10.5c.085 1.778.378 3.54.873 5.25H7.875c.04-2.41.38-7.733 2.367-11.226l9.887 4.397a17.095 17.095 0 002.966 6.829h-2.817z" fill="#000"/></svg>