<svg width="42" height="42" fill="none" xmlns="http://www.w3.org/2000/svg"><mask id="a" maskUnits="userSpaceOnUse" x="6.188" y="1.588" width="30" height="39" fill="#000"><path fill="#fff" d="M6.188 1.588h30v39h-30z"/><path d="M21.748 4.932a.985.985 0 00-1.495 0C17.656 7.969 9.187 18.47 9.187 26.25c0 7.25 4.565 11.813 11.813 11.813s11.813-4.564 11.813-11.813c0-7.779-8.469-18.28-11.065-21.318zm.564 28.865a.984.984 0 01-.93-1.313.975.975 0 01.936-.656 4.927 4.927 0 004.916-4.916.976.976 0 01.657-.936.983.983 0 011.312.93 6.898 6.898 0 01-6.89 6.89z"/></mask><path d="M21.748 4.932l1.9-1.625v-.001l-1.9 1.626zM21 4.588v-2.5 2.5zm-.747.344l-1.9-1.626v.001l1.9 1.625zm2.06 28.865l-.003-2.5h-.003l.006 2.5zm-.93-1.313l2.356.834.003-.008.003-.008-2.363-.818zm.935-.656l-.036 2.5H22.324l-.006-2.5zm4.916-4.916l2.5.006v-.042l-2.5.036zm.657-.936l.817 2.363.008-.003.008-.003-.833-2.357zm1.312.93l-2.5-.005v.003l2.5.002zm-5.556-23.6a3.485 3.485 0 00-1.19-.9l-2.09 4.543a1.514 1.514 0 01-.518-.391l3.798-3.252zm-1.19-.9A3.485 3.485 0 0021 2.089v5c-.218 0-.434-.048-.633-.14l2.09-4.541zM21 2.089c-.503 0-1 .109-1.456.319l2.09 4.542a1.516 1.516 0 01-.634.139v-5zm-1.456.319c-.457.21-.863.517-1.19.899l3.798 3.252c-.143.166-.32.3-.518.39l-2.09-4.541zm-1.192.9c-1.338 1.566-4.198 5.063-6.736 9.198-2.474 4.029-4.928 9.112-4.928 13.745h5c0-3.146 1.779-7.203 4.189-11.13 2.345-3.82 5.018-7.092 6.276-8.564l-3.8-3.249zM6.688 26.25c0 4.157 1.32 7.791 3.92 10.392 2.602 2.602 6.237 3.92 10.393 3.92v-5c-3.092 0-5.364-.962-6.857-2.455-1.493-1.493-2.456-3.764-2.456-6.857h-5zM21 40.563c4.156 0 7.79-1.32 10.392-3.92 2.601-2.602 3.92-6.236 3.92-10.393h-5c0 3.093-.962 5.364-2.455 6.857-1.493 1.493-3.765 2.456-6.857 2.456v5zM35.313 26.25c0-4.633-2.455-9.716-4.929-13.745-2.538-4.135-5.397-7.632-6.736-9.198l-3.8 3.25c1.258 1.47 3.93 4.744 6.275 8.564 2.41 3.926 4.19 7.983 4.19 11.13h5zm-13.006 5.047c.243 0 .482.057.698.168l-2.291 4.445a3.485 3.485 0 001.604.387l-.011-5zm.698.168c.216.112.402.273.542.471l-4.08 2.891c.323.456.75.827 1.247 1.083l2.29-4.445zm.542.471c.14.198.231.427.264.667l-4.952.69c.077.553.286 1.08.609 1.534l4.079-2.89zm.264.667c.034.241.01.486-.072.715l-4.714-1.667a3.484 3.484 0 00-.166 1.642l4.952-.69zm-.066.7a1.525 1.525 0 01-.566.749l-2.87-4.094a3.475 3.475 0 00-1.29 1.709l4.726 1.635zm-.566.749c-.262.184-.576.28-.897.276l.073-5a3.476 3.476 0 00-2.046.63l2.87 4.094zm-.855.276a7.427 7.427 0 005.235-2.175l-3.535-3.536a2.427 2.427 0 01-1.711.711l.01 5zm5.235-2.175a7.427 7.427 0 002.175-5.235l-5-.011a2.427 2.427 0 01-.71 1.71l3.535 3.536zm2.175-5.277c.005.32-.092.634-.276.897l-4.094-2.87a3.476 3.476 0 00-.63 2.046l5-.074zm-.276.897c-.184.263-.446.46-.75.566l-1.635-4.725c-.691.239-1.29.69-1.709 1.289l4.094 2.87zm-.734.56c-.229.081-.474.106-.714.072l.69-4.952a3.484 3.484 0 00-1.643.166l1.667 4.714zm-.714.072a1.515 1.515 0 01-.668-.264l2.892-4.08a3.484 3.484 0 00-1.535-.608l-.69 4.952zm-.668-.264a1.517 1.517 0 01-.47-.542l4.444-2.291a3.485 3.485 0 00-1.082-1.247l-2.892 4.08zm-.47-.542a1.517 1.517 0 01-.169-.698l5 .01a3.485 3.485 0 00-.387-1.604L26.872 27.6zm-.169-.695a4.398 4.398 0 01-1.288 3.105l3.536 3.535a9.398 9.398 0 002.752-6.635l-5-.005zm-1.288 3.105a4.398 4.398 0 01-3.105 1.288l.005 5a9.398 9.398 0 006.636-2.753l-3.536-3.535z" fill="#000" mask="url(#a)"/></svg>