<svg width="42" height="42" viewBox="0 0 42 42" fill="none" xmlns="http://www.w3.org/2000/svg">
<path d="M21 14V37.3334M35 21H6.99996H35ZM35 21C35.6188 21 36.2123 20.7542 36.6499 20.3166C37.0875 19.879 37.3333 19.2855 37.3333 18.6667V16.3334C37.3333 15.7145 37.0875 15.121 36.6499 14.6834C36.2123 14.2459 35.6188 14 35 14H6.99996C6.38112 14 5.78763 14.2459 5.35004 14.6834C4.91246 15.121 4.66663 15.7145 4.66663 16.3334V18.6667C4.66663 19.2855 4.91246 19.879 5.35004 20.3166C5.78763 20.7542 6.38112 21 6.99996 21H35ZM35 21V32.6667C35 33.9044 34.5083 35.0914 33.6331 35.9665C32.758 36.8417 31.571 37.3334 30.3333 37.3334H11.6666C10.4289 37.3334 9.24196 36.8417 8.36679 35.9665C7.49162 35.0914 6.99996 33.9044 6.99996 32.6667V21H35ZM21 14V11.6667V14ZM21 14H13.3326C12.8074 14 12.2874 13.8966 11.8021 13.6956C11.3169 13.4946 10.876 13.2 10.5047 12.8286C9.75465 12.0786 9.33329 11.0614 9.33329 10.0007V9.33335C9.33329 8.09568 9.82496 6.90869 10.7001 6.03352C11.5753 5.15835 12.7623 4.66669 14 4.66669C15.8565 4.66669 17.637 5.40418 18.9497 6.71694C20.2625 8.02969 21 9.81017 21 11.6667V14ZM21 14H28.6673C30.877 14 32.6666 12.208 32.6666 10.0007V9.33335C32.6666 8.09568 32.175 6.90869 31.2998 6.03352C30.4246 5.15835 29.2376 4.66669 28 4.66669C26.1434 4.66669 24.363 5.40418 23.0502 6.71694C21.7375 8.02969 21 9.81017 21 11.6667V14Z" stroke="black" stroke-width="2.5"/>
</svg>
