<svg width="42" height="42" viewBox="0 0 42 42" fill="none" xmlns="http://www.w3.org/2000/svg">
<path d="M2.81038 31.6138C1.86496 32.5592 1.86496 34.0981 2.81038 35.0435L6.95662 39.1898C7.41442 39.648 8.02342 39.9 8.67106 39.9C9.31912 39.9 9.92812 39.6476 10.3859 39.1898L21.3601 28.2156C21.7612 27.8145 21.9813 27.3063 22.0422 26.7821L25.1145 29.854C24.2484 32.5437 24.9473 35.4992 26.9684 37.5203C28.414 38.9663 30.3313 39.7391 32.3011 39.7391C33.0894 39.7391 33.8866 39.6152 34.6653 39.3611C34.6745 39.3582 34.6821 39.3531 34.6909 39.3498C34.7186 39.3397 34.7451 39.3271 34.7715 39.3141C34.7959 39.3019 34.8207 39.2901 34.8434 39.2763C34.8648 39.2633 34.8849 39.2477 34.9051 39.2326C34.9303 39.2137 34.9551 39.1948 34.9778 39.1734C34.9841 39.1675 34.9916 39.1633 34.9979 39.157C35.0088 39.1461 35.0168 39.1331 35.0269 39.1213C35.0475 39.0982 35.0676 39.0751 35.0853 39.0499C35.1008 39.0285 35.1143 39.0062 35.1273 38.9835C35.1411 38.9596 35.1542 38.9357 35.1655 38.9109C35.1768 38.8861 35.1865 38.8609 35.1953 38.8353C35.2041 38.8097 35.2121 38.784 35.2184 38.7576C35.2247 38.732 35.2289 38.7063 35.2327 38.6803C35.2365 38.6526 35.2394 38.6253 35.2407 38.5971C35.2419 38.5707 35.2411 38.5442 35.2394 38.5178C35.2377 38.4909 35.2356 38.464 35.2319 38.4367C35.2272 38.4073 35.2205 38.3787 35.213 38.3498C35.2088 38.3342 35.2079 38.3183 35.2025 38.3027C35.1995 38.2939 35.1945 38.2863 35.1911 38.2775C35.181 38.2498 35.1684 38.2233 35.1554 38.1965C35.1432 38.1717 35.1315 38.1473 35.1172 38.1238C35.1042 38.1028 35.0895 38.0835 35.0744 38.0633C35.055 38.0373 35.0353 38.0121 35.0135 37.989C35.0076 37.9827 35.0034 37.9755 34.9975 37.9692L32.1516 35.1229C31.6862 34.6575 31.685 33.9003 32.1491 33.4362L33.5766 32.0086C33.8013 31.7839 34.1 31.66 34.4179 31.66C34.4183 31.66 34.4183 31.66 34.4187 31.66C34.7375 31.66 35.0374 31.7847 35.2634 32.0107L38.1097 34.857C38.116 34.8633 38.1231 34.8675 38.1294 34.8734C38.1521 34.8948 38.1769 34.9137 38.2021 34.9326C38.2227 34.9478 38.2428 34.9633 38.2643 34.9767C38.2869 34.9906 38.3109 35.0024 38.3352 35.0141C38.3625 35.0276 38.3894 35.0406 38.4176 35.0507C38.426 35.0536 38.4335 35.0586 38.4419 35.0616C38.4507 35.0645 38.4596 35.0633 38.4684 35.0658C38.5444 35.088 38.6221 35.1027 38.7006 35.1032C38.7019 35.1032 38.7027 35.1036 38.704 35.1036C38.7053 35.1036 38.7061 35.1032 38.7074 35.1032C38.7842 35.1027 38.8602 35.0885 38.9346 35.0675C38.9497 35.0633 38.9648 35.0591 38.9799 35.054C39.0505 35.0297 39.1181 34.9965 39.1815 34.9528C39.1929 34.9452 39.2021 34.9356 39.213 34.9272C39.242 34.9049 39.2718 34.8843 39.2983 34.8575C39.3201 34.8356 39.3365 34.8113 39.355 34.7877C39.3655 34.7747 39.3768 34.763 39.3865 34.7491C39.4331 34.684 39.4684 34.6143 39.494 34.5412C39.4961 34.5353 39.5003 34.5311 39.5024 34.5252C40.3945 31.8041 39.6893 28.8544 37.662 26.8271C35.6414 24.806 32.6862 24.108 29.9987 24.974L24.9826 19.9567L33.6997 11.2383C33.9538 10.9847 34.2969 10.8524 34.6602 10.8792C34.6657 10.8797 34.6707 10.8797 34.6762 10.8801C35.8064 10.9532 36.8711 10.3664 37.4154 9.38488L39.7947 5.0971C39.9766 4.7695 39.9191 4.36084 39.654 4.09582L38.7792 3.22096L38.108 2.54938L37.9047 2.3461C37.6401 2.08066 37.2311 2.02312 36.903 2.2054L32.6148 4.58512C31.6283 5.1328 31.0419 6.21346 31.1209 7.33822C31.1461 7.69564 31.0151 8.04592 30.7622 8.29876L22.043 17.018L17.0265 12.0011C17.8926 9.31264 17.1941 6.35794 15.1735 4.33774C13.1466 2.3104 10.1957 1.60606 7.47574 2.4973C7.46692 2.50024 7.45978 2.50486 7.45138 2.50822C7.42324 2.5183 7.39636 2.53132 7.36906 2.54476C7.3447 2.55652 7.32076 2.56828 7.29808 2.58214C7.27666 2.59516 7.2565 2.6107 7.23592 2.62624C7.21072 2.64514 7.18594 2.66404 7.16326 2.68546C7.15696 2.69134 7.1494 2.69554 7.14352 2.70184C7.13218 2.71318 7.12462 2.7262 7.11412 2.73754C7.09354 2.76064 7.07338 2.78374 7.05574 2.80894C7.0402 2.83078 7.02676 2.85304 7.01374 2.87572C6.99988 2.89924 6.98728 2.92276 6.97594 2.94796C6.9646 2.97316 6.95494 2.99878 6.9457 3.02482C6.9373 3.05002 6.92932 3.0748 6.92302 3.10084C6.91672 3.1273 6.9121 3.15376 6.90832 3.18064C6.90454 3.20752 6.9016 3.23398 6.90076 3.26128C6.8995 3.289 6.90034 3.3163 6.90202 3.3436C6.9037 3.36964 6.90538 3.39568 6.90958 3.42172C6.9142 3.45196 6.92134 3.48136 6.92932 3.51076C6.93352 3.5263 6.93436 3.54184 6.9394 3.55696C6.94234 3.56578 6.94696 3.57292 6.95032 3.58132C6.9604 3.60946 6.97342 3.63634 6.98686 3.66364C6.99862 3.688 7.01038 3.71236 7.02424 3.73504C7.03726 3.75604 7.05196 3.77536 7.06708 3.7951C7.08682 3.82156 7.10656 3.84718 7.12882 3.8707C7.13428 3.87658 7.13806 3.8833 7.14394 3.88918L9.99028 6.73552C10.4556 7.2013 10.4565 7.95814 9.99238 8.42266L8.56522 9.84982C8.10154 10.3143 7.3447 10.3135 6.87808 9.84772L4.03132 7.00138C4.02502 6.99508 4.01788 6.9913 4.01158 6.985C3.98848 6.96316 3.96328 6.94384 3.93766 6.92494C3.9175 6.90982 3.89776 6.8947 3.87676 6.8821C3.85366 6.86782 3.82888 6.85564 3.80368 6.84388C3.77722 6.83086 3.75118 6.81826 3.72388 6.8086C3.71506 6.80524 3.70708 6.8002 3.69826 6.79726C3.68272 6.79222 3.66676 6.79096 3.65122 6.78718C3.62182 6.77962 3.59284 6.77248 3.56302 6.76786C3.53656 6.76366 3.51052 6.76156 3.48406 6.7603C3.45676 6.75862 3.4303 6.7582 3.403 6.75904C3.37486 6.7603 3.34714 6.76324 3.31942 6.76702C3.29422 6.7708 3.26902 6.775 3.24382 6.78088C3.2161 6.7876 3.1888 6.79558 3.16192 6.80524C3.13798 6.81364 3.11488 6.82246 3.09178 6.83296C3.06448 6.84514 3.03844 6.85942 3.01282 6.87454C2.99224 6.88672 2.97208 6.8989 2.95276 6.91276C2.92588 6.93166 2.9011 6.95308 2.87632 6.97534C2.8654 6.98458 2.85364 6.9913 2.84356 7.00138C2.83768 7.00726 2.83348 7.0144 2.8276 7.0207C2.80576 7.04422 2.78602 7.06942 2.7667 7.09546C2.75158 7.11562 2.73646 7.13536 2.72386 7.15636C2.71 7.17904 2.69824 7.2034 2.68606 7.22776C2.67304 7.25464 2.66002 7.28152 2.64994 7.30924C2.64658 7.31806 2.64154 7.32562 2.6386 7.33444C1.74988 10.0573 2.45464 13.0065 4.47946 15.0314C5.92846 16.4808 7.85836 17.2498 9.82606 17.2498C10.601 17.2498 11.3809 17.1238 12.1407 16.8798L15.2172 19.9567C14.6771 20.0193 14.1747 20.249 13.7841 20.6396L2.81038 31.6138ZM29.1881 26.5381C29.1885 26.5385 29.1893 26.5394 29.1897 26.5398L29.191 26.541C29.2061 26.5562 29.2242 26.5675 29.2401 26.5814C29.2649 26.6024 29.2889 26.625 29.3157 26.6431C29.4573 26.7389 29.6211 26.7876 29.7849 26.7876C29.8995 26.7876 30.0138 26.7624 30.1209 26.7153C32.3129 25.8359 34.803 26.3436 36.4742 28.0144C37.696 29.2362 38.297 30.8889 38.1849 32.5554L36.452 30.8225C35.9089 30.2795 35.1873 29.98 34.4204 29.9796C34.4196 29.9796 34.4192 29.9796 34.4187 29.9796C33.6522 29.9796 32.9315 30.2782 32.3897 30.82L30.9617 32.2476C29.8433 33.3673 29.8441 35.1893 30.9642 36.3102L32.6959 38.0419C31.0285 38.1536 29.3762 37.5526 28.1561 36.3325C26.4908 34.6672 25.9814 32.1871 26.8482 29.9997C26.9276 29.9598 27.0036 29.9107 27.0696 29.8439L27.779 29.1299C28.1057 28.8006 28.104 28.2689 27.7752 27.9422C27.4459 27.6154 26.9146 27.6167 26.587 27.9459L26.0859 28.4504L22.5231 24.8879L22.5357 24.8753C23.2925 24.1181 23.3963 22.9568 22.8566 22.0827L23.7944 21.1449L29.1881 26.5381ZM31.9504 9.4861C32.5472 8.88886 32.8555 8.06314 32.7971 7.2202C32.7635 6.7435 33.0122 6.28528 33.4305 6.05344L37.1647 3.98116L38.0186 4.83502L35.9463 8.56924C35.7144 8.98714 35.2642 9.23788 34.7795 9.2026C34.7741 9.20218 34.769 9.20218 34.7631 9.20176C33.9227 9.148 33.1079 9.45418 32.5119 10.0502L21.7158 20.8484L21.434 20.5665L21.1522 20.2847L22.6365 18.8004C22.6365 18.8004 22.6369 18.8 22.6373 18.8C22.6377 18.8 22.6377 18.7996 22.6377 18.7992L31.9504 9.4861ZM5.66722 13.844C4.44712 12.6239 3.84652 10.9716 3.95824 9.30424L5.6899 11.0359C6.2506 11.5966 6.98686 11.8772 7.72312 11.8772C8.45854 11.8772 9.19312 11.5974 9.75256 11.038L11.1797 9.61042C12.2994 8.4907 12.2982 6.66832 11.1776 5.54776L9.4447 3.81526C11.1117 3.7027 12.7635 4.30414 13.9853 5.5255C15.6326 7.17274 16.1471 9.61714 15.318 11.786C15.2793 11.8133 15.2411 11.8427 15.2063 11.8776L14.4965 12.5916C14.1693 12.9204 14.171 13.4526 14.4998 13.7798C14.664 13.9427 14.8778 14.0242 15.092 14.0242C15.3079 14.0242 15.5234 13.9415 15.6876 13.7764L16.0559 13.406L20.8553 18.2053L19.9178 19.1427C19.5629 18.9222 19.1559 18.7988 18.7284 18.7988C18.1232 18.7988 17.5536 19.0352 17.1227 19.4661L17.1122 19.4766L12.9685 15.3325C12.7371 15.0918 12.3755 15.0015 12.0474 15.1351C9.84874 16.0276 7.34428 15.5211 5.66722 13.844ZM16.0265 21.8282L16.5767 22.378C16.9047 22.706 17.4365 22.706 17.7645 22.378C18.0908 22.0517 18.0921 21.5237 17.7687 21.1957L18.3126 20.6518C18.5356 20.4288 18.9203 20.4288 19.1438 20.6518L21.3483 22.8568C21.5772 23.0857 21.5772 23.4587 21.3458 23.6897L20.8049 24.2306L19.4315 22.8572C19.1034 22.5296 18.5717 22.5292 18.2437 22.8572C17.9157 23.1852 17.9157 23.717 18.2437 24.0454L20.1728 25.974C20.463 26.2647 20.463 26.7372 20.1728 27.0278L9.19816 38.0016C8.91718 38.2826 8.4262 38.2834 8.14438 38.0016L3.99856 33.8558C3.70834 33.5651 3.70834 33.0922 3.99856 32.8016L14.9723 21.8282C15.2537 21.546 15.7447 21.5464 16.0265 21.8282Z" fill="black"/>
<path d="M6.00933 34.5903C6.22437 34.5903 6.43899 34.5084 6.60321 34.3442L8.33319 32.6138C8.66121 32.2858 8.66121 31.754 8.33319 31.4256C8.00517 31.098 7.47345 31.0976 7.14543 31.4256L5.41545 33.156C5.08743 33.484 5.08743 34.0158 5.41545 34.3438C5.57925 34.5084 5.79429 34.5903 6.00933 34.5903Z" fill="black"/>
<path d="M14.2818 28.7713L7.65625 35.3972L8.84401 36.585L15.4695 29.959C15.7975 29.631 15.7975 29.0993 15.4695 28.7713C15.1415 28.4433 14.6098 28.4433 14.2818 28.7713Z" fill="black"/>
<path d="M9.27398 31.3237C9.4886 31.3237 9.70322 31.2418 9.86744 31.0784L14.9129 26.0388C15.1636 25.7889 15.5715 25.7893 15.8239 26.0413L15.9759 26.1934C16.2199 26.4378 16.2199 26.8356 15.9629 27.0926L17.1633 28.2678C18.0629 27.3681 18.0629 25.9048 17.1633 25.0048L17.0112 24.8527C16.1053 23.9472 14.6311 23.9455 13.726 24.8498L8.68052 29.8894C8.3525 30.217 8.35166 30.7491 8.67968 31.0776C8.8439 31.2414 9.05852 31.3237 9.27398 31.3237Z" fill="black"/>
</svg>
