<svg width="43" height="42" viewBox="0 0 43 42" fill="none" xmlns="http://www.w3.org/2000/svg">
<path d="M8.79505 8.66425L8.53233 8.51942L8.79506 8.66424C10.6316 5.33261 13.0804 3.2091 15.6198 3.2091H21.3562C16.7922 6.07343 13.6398 12.902 13.6398 20.779C13.6398 28.6554 16.7918 35.486 21.3555 38.3489H15.6198C14.3691 38.3489 13.1284 37.7839 11.9605 36.7615C10.7926 35.739 9.71424 34.2724 8.79852 32.5106L8.53233 32.6489L8.79852 32.5106C6.96592 28.9848 5.83983 24.395 5.83983 20.3634C5.83983 16.3333 6.96906 11.9766 8.79505 8.66425ZM15.6198 1.77794C12.2801 1.77794 9.47877 4.44524 7.5346 7.97199C5.58062 11.5166 4.39983 16.0819 4.39983 20.3634C4.39983 24.644 5.584 29.4177 7.53114 33.164C9.46554 36.8857 12.249 39.7801 15.6198 39.7801H26.1198C29.6154 39.7801 32.7426 37.6017 34.9817 34.1643C37.2226 30.724 38.5998 25.99 38.5998 20.779C38.5998 15.568 37.2226 10.834 34.9817 7.39374C32.7426 3.95632 29.6154 1.77794 26.1198 1.77794H15.6198ZM26.1198 3.41689C29.1634 3.41689 31.9555 5.30821 34.0009 8.4506C36.0446 11.5903 37.3173 15.9471 37.3173 20.779C37.3173 25.6109 36.0446 29.9677 34.0009 33.1074C31.9555 36.2498 29.1634 38.1411 26.1198 38.1411C23.0762 38.1411 20.2842 36.2498 18.2388 33.1074C16.1951 29.9677 14.9223 25.6109 14.9223 20.779C14.9223 15.9471 16.1951 11.5903 18.2388 8.4506C20.2842 5.30821 23.0762 3.41689 26.1198 3.41689ZM26.1198 8.3363C23.8062 8.3363 21.7486 9.77919 20.2838 12.029C18.8171 14.2817 17.9186 17.3761 17.9186 20.779C17.9186 24.1819 18.8171 27.2795 20.2837 29.5353C21.7484 31.7882 23.8059 33.2347 26.1198 33.2347C28.4338 33.2347 30.4913 31.7882 31.956 29.5353C33.4225 27.2795 34.3211 24.1819 34.3211 20.779C34.3211 17.3761 33.4225 14.2817 31.9558 12.029C30.491 9.77919 28.4335 8.3363 26.1198 8.3363ZM26.1198 9.96226C27.9815 9.96226 29.7038 11.121 30.9751 13.0791C32.2446 15.0345 33.0386 17.7551 33.0386 20.779C33.0386 23.803 32.2446 26.5268 30.9749 28.4856C29.7035 30.4471 27.9811 31.6087 26.1198 31.6087C24.9326 31.6087 23.8031 31.1326 22.809 30.2826C24.9765 26.8469 26.1048 23.6202 26.1048 20.4154C26.1048 17.3118 25.0404 14.2764 23.0006 11.1377C23.9484 10.3838 25.0066 9.96226 26.1198 9.96226ZM19.2011 20.779C19.2011 17.2383 20.2876 14.1229 21.9477 12.1572C23.7745 15.0376 24.6648 17.7188 24.6648 20.4154C24.6648 23.1884 23.7193 26.0451 21.78 29.2028C20.2165 27.2273 19.2011 24.1947 19.2011 20.779Z" fill="black" stroke="black" stroke-width="0.6"/>
</svg>
