<svg width="43" height="42" viewBox="0 0 43 42" fill="none" xmlns="http://www.w3.org/2000/svg">
<path d="M34.625 31.5065H8.375C7.67902 31.5058 7.01174 31.229 6.51961 30.7369C6.02748 30.2448 5.75069 29.5775 5.75 28.8815V10.5065C5.75069 9.81055 6.02748 9.14328 6.51961 8.65114C7.01174 8.15901 7.67902 7.88223 8.375 7.88153H34.625C35.321 7.88223 35.9883 8.15901 36.4804 8.65114C36.9725 9.14328 37.2493 9.81055 37.25 10.5065V28.8815C37.249 29.5774 36.9721 30.2445 36.48 30.7365C35.9879 31.2286 35.3209 31.5055 34.625 31.5065ZM8.375 10.5065V28.8815H34.625V10.5065H8.375Z" fill="black"/>
<path d="M3.125 34.1316H39.875V36.7566H3.125V34.1316Z" fill="black"/>
</svg>
