<svg width="42" height="42" viewBox="0 0 42 42" fill="none" xmlns="http://www.w3.org/2000/svg">
<path d="M34.125 26.25H26.25V23.625H34.125V26.25Z" fill="black"/>
<path d="M39.375 36.75H31.5V34.125H39.375V36.75Z" fill="black"/>
<path d="M36.75 31.5H28.875V28.875H36.75V31.5Z" fill="black"/>
<path d="M22.3167 26.25C22.3074 25.1425 22.0121 24.0563 21.4592 23.0966C20.9064 22.1369 20.1148 21.3365 19.1614 20.7729L28.8753 3.9375L26.6046 2.625L16.6598 19.8529C15.4393 19.5802 14.1699 19.6179 12.9678 19.9625C11.7656 20.3072 10.6691 20.9477 9.77838 21.8256C4.86438 26.565 5.24501 37.6451 5.26338 38.115C5.27695 38.4539 5.4212 38.7744 5.66589 39.0093C5.91057 39.2442 6.2367 39.3753 6.57588 39.375H26.2516C26.527 39.375 26.7955 39.2883 27.019 39.1273C27.2425 38.9662 27.4096 38.7389 27.4967 38.4775C27.5838 38.2162 27.5865 37.9341 27.5044 37.6712C27.4222 37.4082 27.2594 37.1778 27.0391 37.0125C22.3928 33.5265 22.3167 26.3209 22.3167 26.25ZM15.6584 22.3086C16.7089 22.3201 17.7145 22.7362 18.4659 23.4703C19.2174 24.2045 19.6569 25.2001 19.693 26.25C19.693 26.2999 19.6956 26.523 19.7153 26.8656L11.9716 23.4216C12.4817 23.0009 13.0703 22.6859 13.7032 22.4949C14.3361 22.3038 15.0008 22.2405 15.6584 22.3086ZM20.2784 36.75C19.2293 35.6818 18.5606 34.2982 18.3753 32.8125H15.7503C15.8443 34.2094 16.2806 35.5616 17.0208 36.75H14.1031C13.5633 35.0467 13.2349 33.2834 13.1253 31.5H10.5003C10.5849 33.2781 10.8778 35.0401 11.3731 36.75H7.87526C7.91595 34.3402 8.25588 29.0168 10.2417 25.5242L20.1288 29.9211C20.6038 32.3877 21.6166 34.7193 23.095 36.75H20.2784Z" fill="black"/>
</svg>
