<svg width="42" height="42" viewBox="0 0 42 42" fill="none" xmlns="http://www.w3.org/2000/svg">
<rect x="6" y="38" width="13" height="6" rx="2" transform="rotate(-90 6 38)" stroke="black" stroke-width="2"/>
<rect x="31" y="38" width="13" height="6" rx="2" transform="rotate(-90 31 38)" stroke="black" stroke-width="2"/>
<rect x="6" y="17" width="13" height="6" rx="2" transform="rotate(-90 6 17)" stroke="black" stroke-width="2"/>
<rect x="31" y="17" width="13" height="6" rx="2" transform="rotate(-90 31 17)" stroke="black" stroke-width="2"/>
<rect x="16" y="14" width="7" height="11" transform="rotate(-90 16 14)" stroke="black" stroke-width="2"/>
<path d="M17 36L17 30.0908C17 28.9624 17.4902 27.8897 18.3432 27.1511C19.5392 26.1156 20.4157 24.7611 20.8703 23.2459L21.244 22L21.756 22L22.1297 23.2459C22.5843 24.7611 23.4608 26.1156 24.6568 27.1511C25.5098 27.8897 26 28.9624 26 30.0908L26 36L17 36Z" stroke="black" stroke-width="2"/>
<path d="M21.5 21V14" stroke="black" stroke-width="2"/>
<path d="M12 32L16 32" stroke="black" stroke-width="2"/>
<path d="M12 11L16 11" stroke="black" stroke-width="2"/>
<path d="M27 32L31 32" stroke="black" stroke-width="2"/>
<path d="M27 11L31 11" stroke="black" stroke-width="2"/>
</svg>
