<svg width="42" height="42" viewBox="0 0 42 42" fill="none" xmlns="http://www.w3.org/2000/svg">
<mask id="path-1-outside-1" maskUnits="userSpaceOnUse" x="6.1875" y="1.58765" width="30" height="39" fill="black">
<rect fill="white" x="6.1875" y="1.58765" width="30" height="39"/>
<path d="M21.7481 4.93177C21.6557 4.82385 21.541 4.73721 21.412 4.67781C21.2829 4.6184 21.1425 4.58765 21.0004 4.58765C20.8583 4.58765 20.7179 4.6184 20.5889 4.67781C20.4598 4.73721 20.3451 4.82385 20.2527 4.93177C17.6556 7.96939 9.1875 18.471 9.1875 26.2501C9.1875 33.4992 13.7517 38.0626 21 38.0626C28.2483 38.0626 32.8125 33.4992 32.8125 26.2501C32.8125 18.471 24.3444 7.96939 21.7481 4.93177ZM22.3125 33.7969C22.1548 33.7973 21.9994 33.7597 21.8593 33.6875C21.7191 33.6152 21.5984 33.5104 21.5072 33.3818C21.4161 33.2531 21.3571 33.1045 21.3354 32.9483C21.3136 32.7922 21.3297 32.6331 21.3823 32.4844C21.4494 32.2905 21.576 32.1226 21.744 32.0048C21.9121 31.887 22.113 31.8252 22.3182 31.8282C23.6212 31.8254 24.87 31.3065 25.7914 30.3852C26.7127 29.4638 27.2316 28.215 27.2344 26.912C27.2314 26.7068 27.2932 26.5059 27.411 26.3378C27.5288 26.1698 27.6967 26.0432 27.8906 25.9761C28.0393 25.9235 28.1984 25.9074 28.3545 25.9292C28.5107 25.9509 28.6593 26.0099 28.788 26.101C28.9166 26.1922 29.0214 26.3129 29.0937 26.4531C29.1659 26.5932 29.2035 26.7486 29.2031 26.9063C29.2012 28.7332 28.4746 30.4847 27.1827 31.7766C25.8909 33.0684 24.1394 33.795 22.3125 33.7969Z"/>
</mask>
<path d="M21.7481 4.93177L23.6485 3.30746L23.6471 3.30575L21.7481 4.93177ZM21.0004 4.58765V2.08765V4.58765ZM20.2527 4.93177L18.3537 3.30575L18.3525 3.30716L20.2527 4.93177ZM22.3125 33.7969L22.3098 31.2969L22.307 31.2969L22.3125 33.7969ZM21.3823 32.4844L23.7393 33.3178L23.7421 33.3099L23.7448 33.3021L21.3823 32.4844ZM22.3182 31.8282L22.2817 34.3279L22.3027 34.3282L22.3236 34.3282L22.3182 31.8282ZM27.2344 26.912L29.7344 26.9175L29.7344 26.8965L29.7341 26.8755L27.2344 26.912ZM27.8906 25.9761L28.7083 28.3386L28.7161 28.3359L28.724 28.3331L27.8906 25.9761ZM29.2031 26.9063L26.7031 26.9008L26.7031 26.9036L29.2031 26.9063ZM23.6471 3.30575C23.32 2.92374 22.914 2.61706 22.4572 2.40679L20.3668 6.94883C20.168 6.85736 19.9914 6.72396 19.8492 6.5578L23.6471 3.30575ZM22.4572 2.40679C22.0003 2.19652 21.5033 2.08765 21.0004 2.08765V7.08765C20.7816 7.08765 20.5655 7.04029 20.3668 6.94883L22.4572 2.40679ZM21.0004 2.08765C20.4975 2.08765 20.0005 2.19652 19.5436 2.40679L21.6341 6.94883C21.4353 7.04029 21.2192 7.08765 21.0004 7.08765V2.08765ZM19.5436 2.40679C19.0868 2.61705 18.6808 2.92373 18.3537 3.30575L22.1517 6.5578C22.0094 6.72397 21.8328 6.85737 21.6341 6.94883L19.5436 2.40679ZM18.3525 3.30716C17.0135 4.87327 14.154 8.36988 11.6156 12.505C9.14233 16.534 6.6875 21.6171 6.6875 26.2501H11.6875C11.6875 23.104 13.4667 19.0468 15.8768 15.1208C18.2217 11.3009 20.8948 8.02789 22.1529 6.55638L18.3525 3.30716ZM6.6875 26.2501C6.6875 30.4065 8.00673 34.0415 10.6079 36.6425C13.2091 39.2436 16.844 40.5626 21 40.5626V35.5626C17.9077 35.5626 15.6364 34.5998 14.1434 33.1069C12.6504 31.614 11.6875 29.3427 11.6875 26.2501H6.6875ZM21 40.5626C25.156 40.5626 28.7909 39.2436 31.3921 36.6425C33.9933 34.0415 35.3125 30.4065 35.3125 26.2501H30.3125C30.3125 29.3427 29.3496 31.614 27.8566 33.1069C26.3636 34.5998 24.0923 35.5626 21 35.5626V40.5626ZM35.3125 26.2501C35.3125 21.6171 32.8577 16.534 30.3845 12.505C27.8462 8.36994 24.9869 4.87336 23.6485 3.30746L19.8477 6.55609C21.1056 8.0278 23.7785 11.3009 26.1233 15.1207C28.5333 19.0468 30.3125 23.104 30.3125 26.2501H35.3125ZM22.307 31.2969C22.5498 31.2964 22.7891 31.3542 23.0049 31.4654L20.7137 35.9096C21.2097 36.1653 21.7599 36.2981 22.318 36.2969L22.307 31.2969ZM23.0049 31.4654C23.2206 31.5767 23.4065 31.7381 23.5469 31.9362L19.4676 34.8274C19.7903 35.2827 20.2176 35.6538 20.7137 35.9096L23.0049 31.4654ZM23.5469 31.9362C23.6873 32.1342 23.778 32.3631 23.8115 32.6035L18.8593 33.2931C18.9362 33.8459 19.1449 34.3721 19.4676 34.8274L23.5469 31.9362ZM23.8115 32.6035C23.845 32.844 23.8202 33.0889 23.7393 33.3178L19.0252 31.6511C18.8392 32.1772 18.7823 32.7404 18.8593 33.2931L23.8115 32.6035ZM23.7448 33.3021C23.6398 33.6053 23.442 33.8676 23.1793 34.0518L20.3088 29.9578C19.71 30.3777 19.2589 30.9757 19.0198 31.6668L23.7448 33.3021ZM23.1793 34.0518C22.9166 34.236 22.6025 34.3326 22.2817 34.3279L22.3548 29.3284C21.6236 29.3178 20.9076 29.538 20.3088 29.9578L23.1793 34.0518ZM22.3236 34.3282C24.2878 34.3239 26.1703 33.5418 27.5591 32.1529L24.0236 28.6174C23.5698 29.0712 22.9546 29.3268 22.3128 29.3282L22.3236 34.3282ZM27.5591 32.1529C28.948 30.7641 29.7301 28.8816 29.7344 26.9175L24.7344 26.9066C24.733 27.5484 24.4774 28.1636 24.0236 28.6174L27.5591 32.1529ZM29.7341 26.8755C29.7388 27.1963 29.6422 27.5104 29.458 27.7731L25.364 24.9026C24.9442 25.5014 24.7239 26.2174 24.7346 26.9486L29.7341 26.8755ZM29.458 27.7731C29.2738 28.0358 29.0115 28.2337 28.7083 28.3386L27.073 23.6136C26.3819 23.8527 25.7839 24.3038 25.364 24.9026L29.458 27.7731ZM28.724 28.3331C28.4951 28.414 28.2501 28.4388 28.0097 28.4053L28.6993 23.4531C28.1466 23.3761 27.5834 23.433 27.0573 23.619L28.724 28.3331ZM28.0097 28.4053C27.7693 28.3718 27.5404 28.2811 27.3424 28.1407L30.2336 24.0614C29.7782 23.7387 29.2521 23.53 28.6993 23.4531L28.0097 28.4053ZM27.3424 28.1407C27.1443 28.0003 26.9829 27.8144 26.8716 27.5987L31.3158 25.3075C31.06 24.8114 30.6889 24.3841 30.2336 24.0614L27.3424 28.1407ZM26.8716 27.5987C26.7604 27.3829 26.7026 27.1436 26.7031 26.9008L31.7031 26.9118C31.7043 26.3537 31.5715 25.8035 31.3158 25.3075L26.8716 27.5987ZM26.7031 26.9036C26.7019 28.0684 26.2386 29.1852 25.415 30.0088L28.9505 33.5443C30.7105 31.7843 31.7005 29.398 31.7031 26.909L26.7031 26.9036ZM25.415 30.0088C24.5913 30.8324 23.4746 31.2957 22.3098 31.2969L22.3152 36.2969C24.8042 36.2943 27.1905 35.3043 28.9505 33.5443L25.415 30.0088Z" fill="black" mask="url(#path-1-outside-1)"/>
</svg>
