<svg width="42" height="42" viewBox="0 0 42 42" fill="none" xmlns="http://www.w3.org/2000/svg">
<g clip-path="url(#clip0)">
<path d="M41.0316 18.2097L38.7622 17.9957C38.4958 17.0757 38.1336 16.1989 37.6519 15.3655L39.093 13.6225C39.4474 13.1946 39.4106 12.5856 39.0261 12.1905L36.1937 9.31486C35.8091 8.91979 35.1817 8.88698 34.7499 9.24004L33.0148 10.6838C32.1919 10.2139 31.3072 9.83854 30.4056 9.57211L30.1916 7.30542C30.1391 6.75942 29.6771 6.34336 29.1246 6.34336H25.5887V3.13429C25.5887 2.54629 25.1096 2.06592 24.5216 2.06592C23.9376 2.06592 23.4546 2.54761 23.4546 3.13429V8.48011H19.4252C17.7084 8.48011 16.0783 9.29254 15.0336 10.6615L10.6419 16.4667L3.25518 18.4879C1.33499 19.0116 0.0133076 20.7546 0.00280762 22.7535V25.5859C0.0133076 28.0232 1.99649 29.9894 4.42724 29.9894H5.00081C5.80012 32.97 8.85956 34.7222 11.8337 33.9242C13.7421 33.4019 15.2449 31.9043 15.7567 29.9894H23.4532V38.8645C23.4532 39.4538 23.9297 39.9315 24.5203 39.9315C25.107 39.9315 25.5874 39.4551 25.5874 38.8645V36.2985H29.1232C29.6771 36.2985 30.1352 35.8838 30.1903 35.3273L30.4042 33.0514C31.3164 32.7824 32.1906 32.4227 33.0266 31.9489L34.7617 33.3927C35.187 33.7484 35.8078 33.7129 36.1924 33.3284L39.0589 30.4566C39.4461 30.072 39.4749 29.4447 39.1258 29.0089L37.6847 27.2659C38.1506 26.4325 38.5286 25.5557 38.7951 24.6462L41.0329 24.4375C41.5749 24.3784 42.0002 23.9204 42.0002 23.3639V19.2675C42.0002 18.7229 41.5749 18.2635 41.0316 18.2097ZM10.3716 31.9909C8.47499 31.9909 6.92887 30.4409 6.92887 28.5364C6.92887 26.6346 8.47499 25.0832 10.3716 25.0832C12.2694 25.0832 13.8156 26.6346 13.8156 28.5364C13.8156 30.4409 12.2799 31.9909 10.3716 31.9909ZM23.4519 27.8421H15.9051C15.531 24.7735 12.7498 22.6052 9.70087 22.9675C7.16381 23.2759 5.15962 25.2893 4.83937 27.8421H4.41281C3.15543 27.8526 2.13168 26.8367 2.12118 25.5754V22.7535C2.13168 21.7285 2.81418 20.8294 3.80512 20.5512L11.5436 18.4341C11.7681 18.3711 11.9702 18.2425 12.1093 18.0495L16.7359 11.9661C17.3764 11.1209 18.3778 10.6287 19.4331 10.6287H23.4519V27.8421ZM25.5834 16.7764C28.0772 15.943 30.7744 17.3001 31.6065 19.8122C32.4386 22.3244 31.0854 25.0189 28.5772 25.8537C27.6086 26.1726 26.5521 26.1726 25.5834 25.8537V16.7764ZM39.8674 22.3795L37.8422 22.5711C37.3828 22.6144 37.0009 22.9557 36.9037 23.4059C36.6373 24.6029 36.1582 25.7369 35.4862 26.7632C35.2316 27.1583 35.2631 27.6649 35.5611 28.0245L36.8631 29.6087L35.3681 31.1063L33.7918 29.8135C33.4309 29.5129 32.9177 29.4814 32.5226 29.7492C31.5107 30.4212 30.3793 30.9029 29.1876 31.1588C28.7282 31.2533 28.3974 31.6379 28.3541 32.0999L28.1625 34.1513H25.5821V28.0679C29.3017 28.9013 32.9925 26.5506 33.8128 22.8179C34.6462 19.0864 32.3008 15.3865 28.5786 14.553C27.5889 14.3286 26.5691 14.3286 25.5874 14.553V8.49061H28.1559L28.3554 10.5329C28.3987 10.9922 28.74 11.3781 29.1889 11.4739C30.3806 11.7404 31.5133 12.222 32.5371 12.8849C32.9321 13.1408 33.4374 13.1093 33.7957 12.81L35.3589 11.5067L36.8302 12.9925L35.5204 14.5859C35.2198 14.9494 35.1896 15.4626 35.4561 15.8577C36.1281 16.8735 36.6071 18.0062 36.8631 19.2045C36.9681 19.6639 37.3434 19.996 37.812 20.038L39.8674 20.2414V22.3795Z" fill="black"/>
</g>
<defs>
<clipPath id="clip0">
<rect width="42" height="42" fill="white"/>
</clipPath>
</defs>
</svg>
