<svg width="64" height="64" viewBox="0 0 64 64" fill="none" xmlns="http://www.w3.org/2000/svg">
<path d="M63.9408 57.8032L58.7776 43.1568C58.6304 42.7408 58.2432 42.4624 57.8064 42.4624H52.6432V40.368H57.8064C58.3776 40.368 58.84 39.8992 58.84 39.3232V5.84639C58.8368 5.26879 58.3776 4.79999 57.8064 4.79999H6.19356C5.62396 4.79999 5.16156 5.26879 5.16156 5.84639V39.3232C5.16156 39.8992 5.62396 40.368 6.19356 40.368H11.3552V42.4624H6.19356C5.75836 42.4624 5.36796 42.7408 5.22236 43.1568L0.0607623 57.8032C-0.131238 58.3472 0.148762 58.9456 0.686362 59.1408C0.796762 59.1776 0.915162 59.2 1.03356 59.2H62.968C63.5376 59.2 64 58.7312 64 58.1536C64 58.0336 63.9808 57.9152 63.9408 57.8032ZM7.22716 38.2784V6.89279H56.7744V38.2784H7.22716ZM50.5808 40.368V42.4624H13.4192V40.368H50.5808ZM6.92156 44.5536H57.0848L58.56 48.7392H5.44636L6.92156 44.5536ZM2.49756 57.1088L4.70876 50.8304H59.2912L61.504 57.1088H2.49756Z" fill="#777777"/>
<path d="M39.2255 52.9232H24.7743V55.016H39.2255V52.9232Z" fill="#777777"/>
<path d="M50.5808 19.4464H46.4528C45.8816 19.4464 45.4192 19.9152 45.4208 20.4928V21.5392H43.36V20.4928C43.36 19.9152 42.8976 19.4464 42.3264 19.4464H37.1648V17.3536H38.1984C38.768 17.3536 39.232 16.8848 39.232 16.3072V12.1232C39.232 11.544 38.7664 11.0768 38.1984 11.0768H25.8112C25.24 11.0768 24.7776 11.5456 24.7776 12.1232V16.3072C24.7776 16.8864 25.2416 17.3536 25.8112 17.3536H26.8432V19.4464H21.68C21.1088 19.4464 20.6464 19.9152 20.6464 20.4928V21.5392H18.5824V20.4928C18.5824 19.9152 18.1184 19.4464 17.5488 19.4464H13.4192C12.8496 19.4464 12.3872 19.9152 12.3872 20.4928V33.0464C12.3872 33.624 12.8496 34.0896 13.4192 34.0896H17.5472C18.1184 34.0896 18.5808 33.624 18.5808 33.0464V32H20.6448V33.0464C20.6448 33.624 21.1088 34.0896 21.6784 34.0896H42.3232C42.8928 34.0896 43.3568 33.624 43.3568 33.0464V32H45.4192V33.0464C45.4192 33.624 45.8816 34.0928 46.4528 34.0928H50.5808C51.1472 34.0928 51.6128 33.624 51.6128 33.0464V20.4928C51.6128 19.9152 51.1504 19.4464 50.5808 19.4464ZM16.5168 32H14.4528V21.5392H16.5168V32ZM20.6448 29.9072H18.5808V23.632H20.6448V29.9072ZM26.84 15.2624V13.1696H37.1632V15.2624H26.84ZM35.0976 17.3536V19.4464H28.904V17.3536H35.0976ZM41.2912 32H22.7104V21.5392H41.2912V32ZM45.4192 29.9072H43.3568V23.632H45.4192V29.9072ZM49.5488 32H47.4848V21.5392H49.5504L49.5488 32Z" fill="#4BA82E"/>
</svg>
