<svg width="64" height="65" viewBox="0 0 64 65" fill="none" xmlns="http://www.w3.org/2000/svg">
<path d="M32 0C14.328 0 0 14.3264 0 32C0 49.6736 14.328 64 32 64C49.6736 64 64 49.6736 64 32C63.9776 14.3344 49.6656 0.0208 32 0ZM61.84 30.9328H57.5712C57.3248 24.8864 54.9344 19.1248 50.8272 14.6768L53.8432 11.6624C58.7488 16.9104 61.5872 23.7552 61.84 30.9328ZM33.0656 2.16C40.2432 2.4128 47.0912 5.2512 52.3376 10.1552L49.3216 13.1712C44.8752 9.0656 39.112 6.6752 33.0656 6.4272V2.16ZM30.9328 2.16V6.4272C24.8864 6.6752 19.1248 9.0656 14.6768 13.1712L11.664 10.1552C16.9104 5.2512 23.7552 2.4128 30.9328 2.16ZM10.1552 11.664L13.1712 14.6784C9.0656 19.1248 6.6752 24.8864 6.4272 30.9344H2.16C2.4128 23.7552 5.2512 16.9104 10.1552 11.664ZM2.16 33.0656H6.4272C6.6752 39.112 9.0656 44.8752 13.1712 49.3216L10.1552 52.3376C5.2512 47.0912 2.4128 40.2432 2.16 33.0656ZM30.9328 61.84C23.7536 61.5856 16.9088 58.7408 11.6624 53.84L14.6768 50.824C19.1232 54.928 24.8848 57.3232 30.9328 57.5712V61.84ZM8.5328 32C8.5328 19.04 19.04 8.5328 32 8.5328C44.96 8.5328 55.4656 19.0384 55.4656 32C55.4656 44.96 44.96 55.4656 32 55.4656C19.0464 55.4528 8.5472 44.9536 8.5328 32ZM33.0656 61.84V57.5712C39.112 57.3248 44.8752 54.9344 49.3216 50.8272L52.3376 53.8432C47.0912 58.7488 40.2432 61.5872 33.0656 61.84ZM53.8432 52.3376L50.8272 49.3216C54.9312 44.8752 57.3248 39.112 57.5712 33.0656H61.84C61.5872 40.2432 58.7488 47.0912 53.8432 52.3376Z" fill="#777777"/>
<path d="M34.1345 42.6656H29.8673C27.5105 42.6656 25.6001 44.5744 25.6001 46.9344C25.6001 49.2912 27.5105 51.2 29.8673 51.2H34.1345C36.4913 51.2 38.4001 49.2912 38.4001 46.9344C38.4001 44.5744 36.4913 42.6656 34.1345 42.6656ZM34.1345 49.0656H29.8673C28.6897 49.0656 27.7345 48.112 27.7345 46.9344C27.7345 45.7568 28.6897 44.8 29.8673 44.8H34.1345C35.3121 44.8 36.2657 45.7568 36.2657 46.9344C36.2657 48.112 35.3121 49.0656 34.1345 49.0656Z" fill="#4BA82E"/>
<path d="M14.9328 32C14.928 23.3488 21.3984 16.064 29.9904 15.0496L29.7424 12.9312C19.208 14.1824 11.6816 23.7376 12.9344 34.272C13.1664 36.2192 13.6928 38.1184 14.4992 39.9056L16.4432 39.0272C15.4416 36.8192 14.928 34.4256 14.9328 32Z" fill="#4BA82E"/>
<path d="M49.0656 32C49.072 34.4256 48.56 36.8192 47.5568 39.0288L49.5008 39.9072C53.8656 30.2384 49.5632 18.8624 39.8912 14.4992C38.104 13.6944 36.2032 13.1664 34.2576 12.9344L34.0112 15.0528C42.6 16.064 49.072 23.3488 49.0656 32Z" fill="#4BA82E"/>
<path d="M18.1329 40.5344C16.3665 40.5344 14.9329 41.9664 14.9329 43.7344C14.9329 45.5008 16.3665 46.9344 18.1329 46.9344C19.8993 46.9344 21.3329 45.5008 21.3329 43.7344C21.3329 41.9664 19.9009 40.5344 18.1329 40.5344ZM18.1329 44.8C17.5441 44.8 17.0657 44.3216 17.0657 43.7344C17.0657 43.144 17.5441 42.6656 18.1329 42.6656C18.7217 42.6656 19.2001 43.144 19.2001 43.7344C19.2001 44.3216 18.7233 44.8 18.1329 44.8Z" fill="#4BA82E"/>
<path d="M45.8655 40.5344C44.0991 40.5344 42.6655 41.9664 42.6655 43.7344C42.6655 45.5008 44.0991 46.9344 45.8655 46.9344C47.6335 46.9344 49.0655 45.5008 49.0655 43.7344C49.0655 41.9664 47.6335 40.5344 45.8655 40.5344ZM45.8655 44.8C45.2783 44.8 44.7999 44.3216 44.7999 43.7344C44.7999 43.144 45.2783 42.6656 45.8655 42.6656C46.4559 42.6656 46.9343 43.144 46.9343 43.7344C46.9343 44.3216 46.4559 44.8 45.8655 44.8Z" fill="#4BA82E"/>
<path d="M39.7185 28.2112L40.2721 26.152L38.3857 25.6464L38.8945 23.7616L36.8321 23.2096L36.1665 25.6976L33.0657 27.4864V23.9088L34.8881 22.088L33.3777 20.5792L32.0001 21.9584L30.6209 20.5792L29.1121 22.088L30.9329 23.9088V27.4864L27.8353 25.6976L27.1697 23.2096L25.1089 23.7616L25.6145 25.6464L23.7297 26.152L24.2817 28.2112L26.7697 27.544L29.8673 29.3328L26.7697 31.1216L24.2817 30.456L23.7297 32.5152L25.6145 33.0224L25.1089 34.9056L27.1697 35.456L27.8353 32.968L30.9329 31.1808V34.76L29.1121 36.5776L30.6209 38.088L32.0001 36.7088L33.3777 38.088L34.8881 36.5776L33.0657 34.76V31.1808L36.1665 32.968L36.8321 35.456L38.8945 34.9056L38.3857 33.0224L40.2721 32.5152L39.7185 30.456L37.2321 31.1216L34.1345 29.3328L37.2321 27.544L39.7185 28.2112Z" fill="#4BA82E"/>
</svg>
