<svg width="64" height="64" viewBox="0 0 64 64" fill="none" xmlns="http://www.w3.org/2000/svg">
<path d="M7.4671 6.40002C6.8783 6.40002 6.3999 6.87682 6.3999 7.46722V24.5344C6.3999 25.1232 6.8783 25.6 7.4671 25.6C8.0559 25.6 8.5343 25.1232 8.5343 24.5328V7.46722C8.5327 6.87682 8.0559 6.40002 7.4671 6.40002Z" fill="#777777"/>
<path d="M12.8001 6.40002C12.2113 6.40002 11.7329 6.87682 11.7329 7.46722V17.0672C11.7329 17.6576 12.2097 18.1344 12.8001 18.1344C13.3905 18.1344 13.8673 17.6576 13.8673 17.0672V7.46722C13.8673 6.87682 13.3889 6.40002 12.8001 6.40002Z" fill="#777777"/>
<path d="M7.4671 28.8C6.8783 28.8 6.3999 29.2768 6.3999 29.8672V46.9344C6.3999 47.5232 6.8783 48 7.4671 48C8.0559 48 8.5343 47.5232 8.5343 46.9344V29.8672C8.5327 29.2768 8.0559 28.8 7.4671 28.8Z" fill="#777777"/>
<path d="M12.8001 22.4C12.2113 22.4 11.7329 22.8768 11.7329 23.4672V39.4672C11.7329 40.0576 12.2097 40.536 12.8001 40.536C13.3905 40.536 13.8673 40.0576 13.8673 39.4672V23.4672C13.8673 22.8768 13.3889 22.4 12.8001 22.4Z" fill="#777777"/>
<path d="M12.8001 43.7344C12.2113 43.7344 11.7329 44.2096 11.7329 44.8V58.6656C11.7329 59.256 12.2097 59.7344 12.8001 59.7344C13.3905 59.7344 13.8673 59.256 13.8673 58.6656V44.8C13.8673 44.2096 13.3889 43.7344 12.8001 43.7344Z" fill="#777777"/>
<path d="M18.1329 14.9328C17.5441 14.9328 17.0657 15.4096 17.0657 16V32C17.0657 32.5904 17.5441 33.0656 18.1329 33.0656C18.7217 33.0656 19.2001 32.5904 19.2001 32V16C19.2001 15.4096 18.7217 14.9328 18.1329 14.9328Z" fill="#777777"/>
<path d="M18.1329 37.3344C17.5441 37.3344 17.0657 37.8096 17.0657 38.4V56.5344C17.0657 57.1232 17.5441 57.6 18.1329 57.6C18.7217 57.6 19.2001 57.1232 19.2001 56.5344V38.4C19.2001 37.8096 18.7217 37.3344 18.1329 37.3344Z" fill="#777777"/>
<path fill-rule="evenodd" clip-rule="evenodd" d="M34.1344 27.7344V22.4C34.1344 21.8096 33.656 21.3328 33.0656 21.3328H25.6V4.8016C25.6 2.1552 23.4448 0 20.7984 0H4.8016C2.1552 0 0 2.1552 0 4.8016V59.1968C0 61.8432 2.1552 64 4.8016 64H20.7968C23.4448 64 25.6 61.8432 25.6 59.1968V42.6656H33.0656C33.656 42.6656 34.1344 42.1904 34.1344 41.6V36.2656V27.7344ZM8.5328 61.8656H20.7984C22.2688 61.8656 23.4672 60.6704 23.4672 59.1968V58.6656H22.4C21.8096 58.6656 21.3328 58.1904 21.3328 57.6C21.3328 57.0096 21.8112 56.5344 22.4 56.5344H23.4672V50.1344H22.4C21.8096 50.1344 21.3328 49.656 21.3328 49.0656C21.3328 48.4768 21.8112 48 22.4 48H23.4672V41.6H22.4C21.8112 41.6 21.3328 41.1232 21.3328 40.536C21.3328 39.9456 21.8112 39.4672 22.4 39.4672H23.4672V33.0672H22.4C21.8096 33.0672 21.3328 32.592 21.3328 32.0016C21.3328 31.4112 21.8112 30.9344 22.4 30.9344H23.4672V24.5344H22.4C21.8096 24.5344 21.3328 24.0576 21.3328 23.4672C21.3328 22.8768 21.8112 22.4 22.4 22.4H23.4672V16H22.4C21.8112 16 21.3328 15.5248 21.3328 14.9344C21.3328 14.344 21.8112 13.8672 22.4 13.8672H23.4672V7.4672H22.4C21.8112 7.4672 21.3328 6.9904 21.3328 6.4C21.3328 5.8096 21.8112 5.3328 22.4 5.3328H23.4672V4.8016C23.4672 3.3296 22.2688 2.1328 20.7984 2.1328H19.2V10.6672C19.2 11.256 18.7216 11.7328 18.1328 11.7328C17.544 11.7328 17.0656 11.256 17.0656 10.6656V2.1328H4.8016C3.3312 2.1328 2.1328 3.3296 2.1328 4.8016V5.3328H3.2C3.7888 5.3328 4.2672 5.8096 4.2672 6.4C4.2672 6.9904 3.7888 7.4672 3.2 7.4672H2.1328V13.8672H3.2C3.7888 13.8672 4.2672 14.3424 4.2672 14.9328C4.2672 15.5232 3.7888 16 3.2 16H2.1328V22.4H3.2C3.7888 22.4 4.2672 22.8752 4.2672 23.4656C4.2672 24.056 3.7888 24.5328 3.2 24.5328H2.1328V30.9328H3.2C3.7888 30.9328 4.2672 31.4096 4.2672 32C4.2672 32.5904 3.7888 33.0656 3.2 33.0656H2.1328V39.4656H3.2C3.7904 39.4656 4.2672 39.944 4.2672 40.5344C4.2672 41.1232 3.7888 41.6 3.2 41.6H2.1328V48H3.2C3.7888 48 4.2672 48.4768 4.2672 49.0656C4.2672 49.656 3.7888 50.1344 3.2 50.1344H2.1328V56.5344H3.2C3.7888 56.5344 4.2672 57.0096 4.2672 57.6C4.2672 58.1904 3.7888 58.6656 3.2 58.6656H2.1328V59.1968C2.1328 60.6704 3.3312 61.8656 4.8016 61.8656H6.4V52.2656C6.4 51.6768 6.8784 51.2 7.4672 51.2C8.056 51.2 8.5328 51.6768 8.5328 52.2656V61.8656ZM25.6 40.5344H32V35.2V28.8V23.4672H25.6V40.5344Z" fill="#777777"/>
<path d="M54.0879 28.0464C53.6719 27.6288 52.9951 27.6288 52.5791 28.0464L49.3791 31.2464C48.9631 31.6624 48.9631 32.3376 49.3791 32.7536C49.5903 32.9616 49.8623 33.0656 50.1375 33.0656C50.4095 33.0656 50.6831 32.9632 50.8927 32.7536L54.0927 29.5536C54.5023 29.1376 54.5023 28.4624 54.0879 28.0464Z" fill="#777777"/>
<path d="M56.8463 30.1792L51.5119 35.512C51.0927 35.9296 51.0927 36.6032 51.5119 37.0208C51.7199 37.2272 51.9935 37.3312 52.2655 37.3312C52.5407 37.3312 52.8127 37.2272 53.0223 37.0208L58.3535 31.6864C58.7727 31.2688 58.7727 30.5952 58.3535 30.1776C57.9375 29.7616 57.2623 29.7616 56.8463 30.1792Z" fill="#777777"/>
<path fill-rule="evenodd" clip-rule="evenodd" d="M60.1312 23.4672H56.4V20.2672H58.5312C60.2976 20.2672 61.7312 18.832 61.7312 17.0672C61.7312 15.3024 60.2976 13.8672 58.5312 13.8672H56.4V11.7328H58.5312C60.2976 11.7328 61.7312 10.2976 61.7312 8.5328C61.7312 6.768 60.2976 5.3328 58.5312 5.3328H56.4V1.0672C56.4 0.4768 55.9216 0 55.3312 0H51.0656C50.4768 0 50 0.4768 50 1.0672V5.3344H47.8656C46.0992 5.3344 44.6656 6.7696 44.6656 8.5344C44.6656 10.2992 46.0992 11.7344 47.8656 11.7344H50V13.8672H47.8656C46.0992 13.8672 44.6656 15.3024 44.6656 17.0672C44.6656 18.832 46.0992 20.2672 47.8656 20.2672H50V23.4672H46.2688C44.208 23.4672 42.5312 25.1424 42.5312 27.2032V27.7344H34V29.8672H42.5312V34.1344H34V36.2656H42.5312V37.8656C42.5312 39.9248 44.208 41.6 46.2688 41.6H60.1312C62.1904 41.6 63.8656 39.9248 63.8656 37.8656V27.2016C63.8656 25.1424 62.1904 23.4672 60.1312 23.4672ZM54.2656 2.1328H52.1312V5.3328H54.2656V2.1328ZM47.8656 7.4656C47.2768 7.4656 46.8 7.944 46.8 8.5328C46.8 9.1216 47.2768 9.6 47.8656 9.6H51.0656H55.3312H58.5312C59.1216 9.6 59.6 9.1216 59.6 8.5328C59.6 7.944 59.1216 7.4656 58.5312 7.4656H55.3312H51.0656H47.8656ZM54.2656 11.7328H52.1312V13.8656H54.2656V11.7328ZM47.8656 16C47.2768 16 46.8 16.4784 46.8 17.0672C46.8 17.656 47.2768 18.1328 47.8656 18.1344H51.0656H55.3312H58.5312C59.1216 18.1344 59.6 17.656 59.6 17.0672C59.6 16.4784 59.1216 16 58.5312 16H55.3312H51.0656H47.8656ZM54.2656 20.2672H52.1312V23.4672H54.2656V20.2672ZM60.1312 39.4656C61.0128 39.4656 61.7312 38.7472 61.7312 37.8656V27.2016C61.7312 26.3184 61.0128 25.6 60.1312 25.6H55.3312H51.0656H46.2688C45.384 25.6 44.6656 26.3184 44.6656 27.2016V28.8V35.2V37.8656C44.6656 38.7472 45.384 39.4656 46.2688 39.4656H60.1312Z" fill="#4BA82E"/>
</svg>
