<svg width="64" height="65" viewBox="0 0 64 65" fill="none" xmlns="http://www.w3.org/2000/svg">
<g clip-path="url(#clip0)">
<path d="M43.0496 44.9809C36.1472 50.8753 25.8368 50.3313 19.5888 43.7473C13.3424 37.1633 13.3424 26.8385 19.5888 20.2529C25.8368 13.6689 36.1456 13.1249 43.0496 19.0193L42.6784 16.0641C34.6688 10.6833 23.912 12.0801 17.5456 19.3281C11.1776 26.5761 11.1776 37.4257 17.5456 44.6721C23.9114 51.9194 34.6683 53.3167 42.676 47.9377L43.0496 44.9809Z" fill="#777777"/>
<path fill-rule="evenodd" clip-rule="evenodd" d="M49.5024 5.23853C44.3088 1.80813 38.2224 -0.0126719 32 0.00012806C14.3264 0.00012806 0 14.3265 0 32.0001C0 49.6737 14.3264 64.0001 32 64.0001C38.2224 64.0129 44.3088 62.1905 49.5024 58.7633L47.6368 57.4321C43.5568 59.9569 38.9216 61.4529 34.1344 61.7921C35.1056 60.1409 35.1216 58.0929 34.1744 56.4257C37.2096 56.1665 40.1712 55.3361 42.8992 53.9857L42.6656 51.6961C33.2432 56.8049 21.5184 54.5249 14.7008 46.2497C7.8832 37.9777 7.8832 26.0337 14.7008 17.7601C21.5184 9.48333 33.2432 7.20013 42.6656 12.3121L42.9024 10.0161C39.6496 8.41453 36.0832 7.54733 32.4592 7.47853L32.1712 7.20013C31.0496 6.06733 30.9232 4.28813 31.872 3.00813L32.5232 2.15533C37.8672 2.23373 43.0896 3.76013 47.6368 6.57133L49.5024 5.23853ZM17.5264 5.88973L17.3984 6.96653C17.2128 8.54253 18.2112 10.0177 19.744 10.4321L20.1296 10.5425C23.1168 8.88013 26.4208 7.87053 29.8256 7.57613C28.8832 5.91053 28.9008 3.87053 29.8672 2.22093C25.536 2.52813 21.3232 3.78093 17.5264 5.88973ZM17.9088 11.9361C16.2576 10.9681 15.248 9.19053 15.264 7.27533C11.6736 9.71533 8.6544 12.9025 6.4096 16.6193L6.8368 17.6209C7.4656 19.0785 9.0688 19.8545 10.6016 19.4449L10.9856 19.3489C12.7584 16.4289 15.1152 13.9041 17.9088 11.9361ZM9.7504 21.6865C7.8352 21.6673 6.0768 20.6321 5.1312 18.9665C3.2352 22.8689 2.216 27.1393 2.144 31.4785L3.008 32.1297C4.288 33.0769 6.0672 32.9505 7.2 31.8305L7.4784 31.5537C7.5392 28.1425 8.312 24.7809 9.7504 21.6865ZM2.2192 34.1345C2.5248 38.4657 3.7776 42.6785 5.888 46.4753L6.9648 46.6033C8.5408 46.7777 10.0112 45.7841 10.432 44.2561L10.5376 43.8753C8.8768 40.8849 7.8656 37.5841 7.5728 34.1761C6.7664 34.6385 5.856 34.8817 4.928 34.8913C3.9728 34.8913 3.0368 34.6289 2.2192 34.1345ZM16.6192 57.5921L17.6208 57.1633C19.0784 56.5345 19.856 54.9313 19.4464 53.3969L19.3504 53.0129C16.4304 51.2417 13.9056 48.8849 11.9376 46.0913C10.9856 47.7313 9.2368 48.7473 7.3392 48.7601H7.2864C9.7248 52.3409 12.9088 55.3553 16.6192 57.5921ZM31.4768 61.8561L32.128 60.9921C33.0768 59.7121 32.9504 57.9313 31.8272 56.8001L31.5504 56.5217C28.1296 56.4641 24.7616 55.6865 21.6624 54.2401C21.6544 56.1537 20.6208 57.9169 18.9536 58.8593C22.8592 60.7585 27.1344 61.7841 31.4768 61.8561Z" fill="#777777"/>
<path fill-rule="evenodd" clip-rule="evenodd" d="M42.672 47.9697L42.676 47.9377L42.6784 47.9361V47.9441L42.6752 47.9537L42.6749 47.9569C42.6743 47.9604 42.6732 47.965 42.672 47.9697Z" fill="#777777"/>
<path d="M47.4 32.2001C47.4 30.4337 45.9664 29.0001 44.2 29.0001C42.4336 29.0001 41 30.4337 41 32.2001C41 33.9665 42.4336 35.4001 44.2 35.4001C45.9664 35.4001 47.4 33.9665 47.4 32.2001ZM44.2 33.2657C43.6096 33.2657 43.1328 32.7889 43.1328 32.2001C43.1328 31.6113 43.6096 31.1329 44.2 31.1329C44.7904 31.1329 45.2672 31.6097 45.2672 32.2001C45.2672 32.7905 44.7888 33.2657 44.2 33.2657Z" fill="#777777"/>
<path fill-rule="evenodd" clip-rule="evenodd" d="M51.2 4.26725C50.9776 4.26405 50.76 4.33605 50.5808 4.47045L49.5024 5.23845L47.6368 6.57125L43.1152 9.80325C43.0272 9.85765 42.9552 9.93125 42.9024 10.0161C42.7321 10.1863 42.6736 11.6177 42.6656 12.3121V16.0001L42.6677 16.0164L43.0496 19.0193C42.8 19.7649 42.6688 20.5473 42.6656 21.3345C42.6784 23.9121 44.0112 26.3025 46.1968 27.6689C45.8528 28.1617 45.568 28.6961 45.3568 29.2577C45.3568 29.2577 45 30.5001 45 32.0001C45 33.5001 45.3568 34.7409 45.3568 34.7409C45.5696 35.3041 45.856 35.8385 46.1968 36.3313C44.0112 37.6977 42.6784 40.0881 42.6656 42.6657C42.6688 43.4529 42.8 44.2337 43.0496 44.9809L42.672 47.9697C42.6688 47.9793 42.6656 47.9921 42.6656 48.0033V51.6961C42.573 52.318 42.4902 53.6465 42.8992 53.9857C42.9552 54.0721 43.0272 54.1457 43.1152 54.1985L47.6368 57.4321L49.5024 58.7633L50.5808 59.5313C50.7584 59.6657 50.9776 59.7377 51.2 59.7345C58.3776 59.7345 64 47.5537 64 32.0001C64 16.4481 58.3776 4.26725 51.2 4.26725ZM48 14.5809L48.2432 14.9121C48.4336 15.1681 48.5024 15.4977 48.424 15.8081C48.352 16.1185 48.1408 16.3793 47.8496 16.5121C45.9152 17.4321 44.72 19.4209 44.8128 21.5601C44.9072 23.7009 46.2704 25.5777 48.2784 26.3265C48.6224 26.4561 48.8752 26.7537 48.9504 27.1153C49.0288 27.4785 48.9072 27.8561 48.6288 28.1073C47.5472 29.1121 46.9328 30.5233 46.9328 32.0001C46.9328 33.4785 47.5472 34.8881 48.6288 35.8945C48.9072 36.1441 49.0288 36.5217 48.9504 36.8849C48.8752 37.2465 48.6224 37.5441 48.2784 37.6753C46.2704 38.4257 44.9072 40.3008 44.8128 42.4417C44.72 44.5825 45.9152 46.5697 47.8496 47.4881C48.1376 47.6225 48.352 47.8817 48.424 48.1921C48.5024 48.5041 48.4336 48.8321 48.2432 49.0881L48 49.4193V51.1361L52.1152 54.0801C54.944 52.3201 58.6656 44.0225 58.6656 32.0001C58.6656 19.9793 54.944 11.6801 52.1152 9.92005L48 12.8641V14.5809ZM44.8 52.7889L51.52 57.5889C57.1632 57.1633 61.8656 45.6225 61.8656 32.0001C61.8656 18.3793 57.1616 6.83845 51.52 6.41125L44.8 11.2113V15.6481L45.0112 15.9265C45.2864 15.6561 45.5808 15.4097 45.8992 15.1905C45.8784 15.1057 45.8656 15.0209 45.8656 14.9345V12.3105C45.8688 11.9681 46.0336 11.6465 46.3152 11.4465L51.392 7.81925C51.6816 7.61285 52.0528 7.56485 52.384 7.69125C56.5216 9.20485 60.8 18.7201 60.8 32.0001C60.8 45.2801 56.5216 54.7937 52.3856 56.3105C52.2672 56.3568 52.1392 56.3825 52.0128 56.3873C51.7888 56.3857 51.5728 56.3137 51.3936 56.1841L46.3168 52.5569C46.0352 52.3568 45.8704 52.0353 45.8672 51.6912V49.0657C45.8672 48.9809 45.8784 48.8945 45.9008 48.8113C45.5808 48.5921 45.288 48.3473 45.0128 48.0753L44.8 48.3537V52.7889Z" fill="#4BA82E"/>
<path d="M38.4 32C38.4 28.4656 35.5344 25.6 32 25.6C28.4656 25.6 25.6 28.4656 25.6 32C25.6 35.5344 28.4656 38.4 32 38.4C35.5328 38.3968 38.3968 35.5328 38.4 32ZM32 36.2656C29.6432 36.2656 27.7328 34.3568 27.7328 32C27.7328 29.6432 29.6432 27.7328 32 27.7328C34.3568 27.7328 36.2656 29.6432 36.2656 32C36.2656 34.3568 34.3568 36.2656 32 36.2656Z" fill="#777777"/>
<path d="M23.4671 32C23.4671 30.2336 22.0335 28.8 20.2671 28.8C18.5007 28.8 17.0671 30.2336 17.0671 32C17.0671 33.7664 18.5007 35.2001 20.2671 35.2001C22.0335 35.2001 23.4671 33.7664 23.4671 32ZM20.2671 33.0657C19.6767 33.0657 19.1999 32.5888 19.1999 32C19.1999 31.4112 19.6767 30.9328 20.2671 30.9328C20.8575 30.9328 21.3343 31.4096 21.3343 32C21.3343 32.5904 20.8559 33.0657 20.2671 33.0657Z" fill="#777777"/>
<path d="M25.5999 24.5328C26.8943 24.5328 28.0607 23.7536 28.5567 22.5568C29.0527 21.36 28.7791 19.9856 27.8623 19.0688C26.9471 18.1536 25.5711 17.88 24.3743 18.3744C23.1791 18.872 22.3999 20.0384 22.3999 21.3328C22.3999 23.1008 23.8335 24.5328 25.5999 24.5328ZM25.5999 20.2672C26.1887 20.2672 26.6671 20.744 26.6671 21.3344C26.6671 21.9232 26.1887 22.4 25.5999 22.4C25.0111 22.4 24.5327 21.9232 24.5327 21.3328C24.5327 20.744 25.0111 20.2672 25.5999 20.2672Z" fill="#777777"/>
<path d="M38.4 18.1328C36.6336 18.1328 35.2 19.5648 35.2 21.3328C35.2 23.0992 36.6336 24.5328 38.4 24.5328C40.1663 24.5328 41.5999 23.0992 41.5999 21.3328C41.5999 19.5664 40.1663 18.1328 38.4 18.1328ZM38.4 22.4C37.8112 22.4 37.3343 21.9232 37.3343 21.3328C37.3343 20.7424 37.8112 20.2656 38.4 20.2656C38.9887 20.2656 39.4656 20.7424 39.4656 21.3328C39.4656 21.9232 38.9887 22.4 38.4 22.4Z" fill="#777777"/>
<path d="M35.2 42.6656C35.2 44.4336 36.6336 45.8656 38.4 45.8656C40.1663 45.8656 41.5999 44.4336 41.5999 42.6656C41.5999 40.8992 40.1663 39.4656 38.4 39.4656C36.6336 39.4656 35.2 40.9008 35.2 42.6656ZM39.4656 42.6656C39.4656 43.256 38.9887 43.7344 38.4 43.7344C37.8112 43.7344 37.3343 43.256 37.3343 42.6656C37.3343 42.0784 37.8112 41.6 38.4 41.6C38.9887 41.6 39.4656 42.0784 39.4656 42.6656Z" fill="#777777"/>
<path d="M25.5999 39.4656C23.8335 39.4656 22.3999 40.8992 22.3999 42.6656C22.3999 44.4336 23.8335 45.8656 25.5999 45.8656C27.3663 45.8656 28.7999 44.4336 28.7999 42.6656C28.7999 40.9008 27.3663 39.4656 25.5999 39.4656ZM25.5999 43.7344C25.0111 43.7344 24.5327 43.256 24.5327 42.6656C24.5327 42.0784 25.0111 41.6 25.5999 41.6C26.1887 41.6 26.6671 42.0784 26.6671 42.6656C26.6671 43.256 26.1887 43.7344 25.5999 43.7344Z" fill="#777777"/>
</g>
<defs>
<clipPath id="clip0">
<rect width="64" height="64" fill="white"/>
</clipPath>
</defs>
</svg>
