<svg width="64" height="64" viewBox="0 0 64 64" fill="none" xmlns="http://www.w3.org/2000/svg">
<path d="M57.0256 14.1296L49.9168 7.11842C47.8256 5.05602 47.464 4.89122 44.688 4.89122C44.6544 4.89122 31.4128 4.88962 31.2448 4.88802C28.8288 4.86242 28.2624 5.17762 25.784 7.94562L23.5088 10.2544L20.944 7.80482L21.568 7.16962C21.976 6.75522 22.1952 6.20642 22.184 5.62722C22.1744 5.04962 21.9376 4.51042 21.5168 4.10882L17.9232 0.672024C17.5008 0.268824 16.944 0.0512235 16.3568 0.0624235C15.7696 0.0736235 15.2224 0.308824 14.8192 0.721624L5.45603 10.2496C5.04643 10.6656 4.82563 11.2144 4.83683 11.7952C4.84643 12.3744 5.08643 12.9136 5.50403 13.3104L9.09923 16.7472C9.51203 17.1424 10.0528 17.3568 10.6288 17.3568H10.6592C11.2464 17.3488 11.7952 17.1168 12.2032 16.7008L12.8272 16.0672L15.3808 18.5072L11.976 21.9648C10.1616 23.8032 10.008 25.0784 9.97923 26.8144L9.96483 60.7504C9.96483 62.5104 11.416 63.9376 13.1984 63.9376H55.9312C57.7088 63.9376 59.1648 62.5056 59.1648 60.7504V19.3936C59.1632 16.9456 58.6848 15.7648 57.0256 14.1296ZM16.4032 2.69602L19.5184 5.67202L17.7264 7.49602L14.6112 4.52002L16.4032 2.69602ZM10.6208 14.7264L7.50563 11.7488L9.29763 9.92482L12.4128 12.904L10.6208 14.7264ZM11.0592 8.13282L12.8512 6.31042L15.9664 9.28642L14.1744 11.1104L11.0592 8.13282ZM14.5872 14.2752L19.1856 9.59682L21.7456 12.0448L17.1424 16.7168L14.5872 14.2752ZM56.632 54.0048H48.8912C49.5904 54.0048 50.1568 54.5664 50.1568 55.2528C50.1568 55.9392 49.5904 56.4992 48.8912 56.4992H56.632V60.7472C56.632 61.1232 56.3136 61.4432 55.9312 61.4432H13.1968C12.8096 61.4432 12.4944 61.1312 12.4944 60.7472L12.496 56.4992H40.3712C39.6736 56.4992 39.1056 55.9376 39.1056 55.2528C39.1056 54.5648 39.6736 54.0048 40.3712 54.0048H12.4976L12.4992 50.2976H56.632V54.0048ZM56.632 47.8016H12.4992L12.5088 26.8448C12.5312 25.4528 12.6016 24.9072 13.7888 23.704L27.6192 9.66242C27.6336 9.64802 27.648 9.63362 27.6608 9.61922C28.672 8.48962 29.344 7.78722 29.7904 7.53762C30.0608 7.38562 30.3024 7.37282 31.2176 7.38242C31.3936 7.38402 44.592 7.38562 44.592 7.38562H44.6C45.64 7.38562 46.2224 7.38402 46.5392 7.51842C46.8736 7.65762 47.3088 8.08162 48.1232 8.88322L55.2304 15.8944C56.3456 16.9952 56.6272 17.5216 56.6272 19.3952V47.8016H56.632Z" fill="#777777"/>
<path d="M46.2 11.592C45.384 10.7744 45.0432 10.6416 43.7808 10.6416H36.224C35.4432 10.6416 34.7616 11.0672 34.4496 11.752C34.12 12.4704 34.2576 13.328 34.8016 13.9392L49.5056 30.3824C49.7808 30.688 50.5232 31.5152 51.4688 31.5136C51.6544 31.5136 51.8496 31.48 52.0496 31.4064C53.3296 30.9296 53.3296 29.2752 53.3296 28.5696V21.1968C53.3296 19.1408 53.16 18.4496 51.5888 16.9072L46.2 11.592ZM50.7984 28.0544L37.4576 13.1376L44.1952 13.1424L49.8 18.672C50.7984 19.6544 50.7984 19.6544 50.7984 21.1984V28.0544Z" fill="#777777"/>
<path d="M42.8128 29.8369C39.5152 28.6913 36.256 28.8833 33.632 30.3793C32.0224 31.2977 30.7232 32.6673 29.8064 34.3729C28.8944 32.6705 27.5952 31.3009 25.9824 30.3793C23.3552 28.8833 20.0944 28.6913 16.8 29.8369C16.2112 30.0417 15.8624 30.6369 15.9776 31.2417C16.616 34.6289 18.4144 37.3185 21.0416 38.8145C22.5376 39.6657 24.2384 40.0945 26.0352 40.0945C26.8544 40.0945 27.6928 40.0033 28.5408 39.8257V43.8417C28.5408 44.5329 29.1072 45.0881 29.8064 45.0881C30.5056 45.0881 31.072 44.5281 31.072 43.8417V39.8257C31.92 40.0033 32.7584 40.0945 33.5744 40.0945C35.3712 40.0945 37.0752 39.6657 38.568 38.8145C41.1984 37.3185 42.9968 34.6289 43.6336 31.2417C43.7536 30.6369 43.4016 30.0417 42.8128 29.8369ZM22.3072 36.6529C20.6096 35.6865 19.3632 34.0081 18.7264 31.8689C20.9232 31.3425 23.0192 31.5713 24.7168 32.5377C26.4176 33.5057 27.6624 35.1809 28.2992 37.3217C26.0992 37.8465 24.0048 37.6225 22.3072 36.6529ZM37.3024 36.6529C35.6016 37.6193 33.5088 37.8465 31.3088 37.3217C31.944 35.1809 33.192 33.5057 34.8928 32.5377C36.5936 31.5713 38.6832 31.3425 40.8832 31.8689C40.2496 34.0081 39.0016 35.6881 37.3024 36.6529Z" fill="#4BA82E"/>
</svg>
