<svg width="64" height="65" viewBox="0 0 64 65" fill="none" xmlns="http://www.w3.org/2000/svg">
<path d="M61.5632 17.3104C62.9072 17.3104 64 16.2144 64 14.8704V10.4368C64 9.09282 62.9056 7.99842 61.5632 7.99842H55.9984V6.44802C55.9984 4.21442 54.1808 2.40002 51.9472 2.40002H42.0848C39.8512 2.40002 38.032 4.21602 38.032 6.44802V7.99842H25.968V6.44802C25.968 4.21442 24.1504 2.40002 21.9152 2.40002H12.0528C9.8192 2.40002 8.0016 4.21602 8.0016 6.44802V7.99842H2.4384C1.0944 7.99842 0 9.09442 0 10.4368V14.8704C0 16.216 1.0944 17.3104 2.4384 17.3104H2.4832V48.8752C2.4832 51.6496 4.44 53.976 7.048 54.5472V57.8816C7.048 59.9312 8.7184 61.6 10.7728 61.6H16.2848C18.3392 61.6 20.0112 59.9312 20.0112 57.8816V54.6848H47.4032C48.0032 58.5936 51.3936 61.6 55.472 61.6C59.9776 61.6 63.64 57.9376 63.64 53.44C63.64 51.3312 62.8368 49.4064 61.5152 47.9552V17.3104H61.5632ZM42.0848 4.89922H51.9472C52.8032 4.89922 53.5008 5.59522 53.5008 6.44962V8.00002H40.5344V6.44802H40.5328C40.5312 5.59202 41.2288 4.89922 42.0848 4.89922ZM10.5008 6.44802C10.5008 5.59362 11.1968 4.89762 12.0528 4.89762H21.9152C22.7712 4.89762 23.4672 5.59202 23.4672 6.44802V7.99842H10.5008V6.44802ZM17.5104 57.8816C17.5104 58.5536 16.96 59.104 16.2848 59.104H10.7728C10.0976 59.104 9.5472 58.5536 9.5472 57.8816V54.6848H17.5104V57.8816ZM27.5296 52.1872L27.528 36.1184C27.528 35.296 28.1984 34.6272 29.0208 34.6272H59.0192V46.0896C57.944 45.5712 56.7408 45.2784 55.472 45.2784C51.3968 45.2784 48.0064 48.2784 47.4032 52.184L27.5296 52.1872ZM55.472 59.1008C52.3472 59.1008 49.8064 56.5632 49.8064 53.4416C49.8064 50.3216 52.3472 47.7792 55.472 47.7792C58.5984 47.7792 61.1408 50.3216 61.1408 53.4416C61.1408 56.5632 58.5984 59.1008 55.472 59.1008ZM61.5008 14.8128H37.616C36.9248 14.8128 36.3664 15.3728 36.3664 16.0608C36.3664 16.752 36.928 17.3104 37.616 17.3104H59.0192V32.128H29.0208C26.8192 32.128 25.0288 33.9168 25.0288 36.1184V52.1872H18.76H8.2976C6.4688 52.1872 4.9824 50.7024 4.9824 48.8752V17.3104H26.376C27.0656 17.3104 27.6256 16.7504 27.6256 16.0608C27.6256 15.3712 27.0656 14.8128 26.376 14.8128H2.5008V10.4976H61.5008V14.8128Z" fill="#777777"/>
<path d="M34.3265 29.0208H51.4401C53.6833 29.0208 55.5089 27.1952 55.5089 24.9536C55.5089 22.7136 53.6833 20.8912 51.4401 20.8912H34.3265C32.0833 20.8912 30.2593 22.7136 30.2593 24.9536C30.2593 27.1952 32.0849 29.0208 34.3265 29.0208ZM34.3265 23.3888H51.4401C52.3057 23.3888 53.0065 24.0912 53.0065 24.9552C53.0065 25.8192 52.3057 26.5216 51.4401 26.5216H34.3265C33.4625 26.5216 32.7601 25.8208 32.7601 24.9552C32.7601 24.0928 33.4625 23.3888 34.3265 23.3888Z" fill="#4BA82E"/>
<path d="M18.1791 39.656H14.4831L17.1343 34.3296C17.4415 33.712 17.1903 32.9632 16.5727 32.656C15.9535 32.3488 15.2047 32.6 14.8975 33.2192L11.3471 40.3504C10.9423 41.1632 11.5567 42.16 12.4703 42.1568H16.1599L13.5055 47.4784C13.1983 48.0976 13.4495 48.8464 14.0671 49.1536C14.2463 49.2448 14.4367 49.2848 14.6239 49.2848C15.0831 49.2848 15.5247 49.032 15.7439 48.5936L19.2975 41.4624C19.3967 41.2624 19.4399 41.0336 19.4239 40.8128C19.3775 40.1712 18.8239 39.656 18.1791 39.656Z" fill="#4BA82E"/>
<path d="M23.3488 20.8928C21.1072 20.8928 19.2832 22.7152 19.2832 24.9552C19.2832 27.1952 21.1072 29.0208 23.3488 29.0224C25.592 29.0224 27.416 27.1952 27.416 24.9552C27.416 22.7152 25.5904 20.8928 23.3488 20.8928ZM23.3504 26.5216C22.4864 26.5216 21.784 25.8208 21.784 24.9552C21.784 24.0928 22.4864 23.3888 23.3504 23.3888C24.2144 23.3888 24.9168 24.0912 24.9168 24.9552C24.9168 25.8192 24.2144 26.5216 23.3504 26.5216Z" fill="#4BA82E"/>
<path d="M16.6272 24.9552C16.6272 22.7152 14.8016 20.8928 12.56 20.8928C10.3184 20.8928 8.49438 22.7152 8.49438 24.9552C8.49438 27.1968 10.3184 29.0224 12.56 29.0224C14.8032 29.0224 16.6272 27.1952 16.6272 24.9552ZM10.9936 24.9552C10.9936 24.0928 11.696 23.3888 12.56 23.3888C13.424 23.3888 14.1264 24.0912 14.1264 24.9552C14.1264 25.8192 13.424 26.5216 12.56 26.5216C11.696 26.5216 10.9936 25.8208 10.9936 24.9552Z" fill="#4BA82E"/>
<path d="M31.5103 37.6191C30.8207 37.6191 30.2607 38.1791 30.2607 38.8687V38.8751C30.2607 39.5663 30.8207 40.1183 31.5103 40.1183C32.2015 40.1183 32.7599 39.5551 32.7599 38.8687C32.7599 38.1775 32.1999 37.6191 31.5103 37.6191Z" fill="#777777"/>
<path d="M31.5103 43.1024C30.8207 43.1024 30.2607 43.6624 30.2607 44.352V44.3648C30.2607 45.0528 30.8207 45.6032 31.5103 45.6032C32.2015 45.6032 32.7599 45.0368 32.7599 44.352C32.7599 43.6624 32.1999 43.1024 31.5103 43.1024Z" fill="#777777"/>
<path d="M36.5216 37.6191C35.8304 37.6191 35.272 38.1791 35.272 38.8687V38.8751C35.272 39.5663 35.832 40.1183 36.5216 40.1183C37.2112 40.1183 37.7712 39.5551 37.7712 38.8687C37.7712 38.1775 37.2128 37.6191 36.5216 37.6191Z" fill="#777777"/>
<path d="M36.5216 43.1024C35.8304 43.1024 35.272 43.6624 35.272 44.352V44.3648C35.272 45.0528 35.832 45.6032 36.5216 45.6032C37.2112 45.6032 37.7712 45.0368 37.7712 44.352C37.7712 43.6624 37.2128 43.1024 36.5216 43.1024Z" fill="#777777"/>
<path d="M41.5296 37.6191C40.84 37.6191 40.28 38.1791 40.28 38.8687V38.8751C40.28 39.5663 40.8416 40.1183 41.5296 40.1183C42.2224 40.1183 42.7776 39.5551 42.7776 38.8687C42.7776 38.1775 42.2224 37.6191 41.5296 37.6191Z" fill="#777777"/>
<path d="M41.5296 43.1024C40.84 43.1024 40.28 43.6624 40.28 44.352V44.3648C40.28 45.0528 40.8416 45.6032 41.5296 45.6032C42.2224 45.6032 42.7776 45.0368 42.7776 44.352C42.7776 43.6624 42.2224 43.1024 41.5296 43.1024Z" fill="#777777"/>
<path d="M56.5089 38.8752C56.5089 38.184 55.9457 37.6256 55.2593 37.6256H47.1473C46.4577 37.6256 45.8977 38.1872 45.8977 38.8752C45.8977 39.5664 46.4625 40.1216 47.1473 40.1216H55.2593C55.9505 40.1216 56.5089 39.5664 56.5089 38.8752Z" fill="#777777"/>
<path d="M55.472 52.1871C54.7808 52.1871 54.2224 52.7471 54.2224 53.4367V53.4431C54.2224 54.1343 54.7824 54.6863 55.472 54.6863C56.1616 54.6863 56.7216 54.1215 56.7216 53.4367C56.7216 52.7471 56.1632 52.1871 55.472 52.1871Z" fill="#777777"/>
<path d="M31.9936 17.3105H32C32.6896 17.3105 33.2464 16.7505 33.2464 16.0609C33.2464 15.3713 32.6832 14.8129 31.992 14.8129C31.3008 14.8129 30.7424 15.3729 30.7424 16.0609C30.7424 16.7521 31.3024 17.3105 31.9936 17.3105Z" fill="#777777"/>
</svg>
