<svg width="64" height="65" viewBox="0 0 64 65" fill="none" xmlns="http://www.w3.org/2000/svg">
<path d="M62.9328 29.6875H56.533C55.9426 29.6875 55.4642 30.1611 55.4658 30.7467V37.1065H51.1011C52.7635 33.3274 53.5187 29.2075 53.3011 25.0892C52.4483 11.7552 41.8486 1.08185 28.4473 0.0594724C21.0811 -0.431715 13.8397 2.13622 8.44939 7.1489C3.05752 12.1616 -0.00159933 19.171 6.27284e-07 26.5068C0.0591991 38.0873 7.63181 48.3063 18.7403 51.7974L18.4315 52.4246L14.1644 51.1894C13.8925 51.103 13.5997 51.1366 13.3501 51.2726C13.1021 51.407 12.9181 51.639 12.8413 51.9062L11.6461 55.9781C11.5725 56.2485 11.6029 56.5365 11.7325 56.7861C11.8717 57.0277 12.1005 57.2132 12.3725 57.29L34.8999 63.8211C35.0007 63.8531 35.0999 63.8643 35.2007 63.8627C35.6759 63.8627 36.0935 63.5523 36.2279 63.0979L37.4215 59.0292C37.4967 58.7572 37.4631 58.4676 37.3351 58.2228C37.1959 57.9764 36.9687 57.7924 36.6967 57.714L35.4663 57.354L37.1319 54.2021C40.8454 54.5781 44.9397 54.9973 48.7492 55.3893C51.1587 55.6341 53.4531 55.8725 55.4658 56.0821V58.3076C55.4658 58.8916 55.9442 59.3668 56.5346 59.3668H62.9344C63.5216 59.3668 64 58.8916 64 58.3076V30.7467C63.9984 30.1611 63.52 29.6875 62.9328 29.6875ZM34.4743 61.4899L13.9948 55.5525L14.5916 53.5189L35.0711 59.4548L34.4743 61.4899ZM20.5115 53.031L20.8427 52.3622C22.0442 52.631 23.2634 52.8182 24.4906 52.927C24.7466 52.9494 29.1305 53.3925 34.8359 53.9749L33.3736 56.7493L20.5115 53.031ZM51.1987 53.5157C48.4212 53.2294 44.8837 52.8678 41.3046 52.5014C33.268 51.6758 25.0154 50.8294 24.6602 50.8006C14.99 50.0118 6.69583 43.6328 3.50231 34.5258C0.308793 25.422 2.81593 15.3007 9.89895 8.70886C14.4252 4.46416 20.4203 2.10742 26.6441 2.12662C27.1993 2.12662 27.7529 2.14742 28.3081 2.17942C36.4423 2.71861 43.7749 7.24009 47.874 14.2415C51.9747 21.2445 52.3059 29.8139 48.7556 37.1081H46.9332V39.2265H51.1987V53.5157ZM55.4642 53.9525C54.9106 53.8997 54.1858 53.8245 53.3331 53.7285V39.2281H55.4642V53.9525ZM61.8641 57.2468H57.5986V31.8059H61.8641V57.2468Z" fill="#777777"/>
<path d="M26.6665 8.7392C17.2395 8.7392 9.59973 16.3342 9.59973 25.7004C9.59973 35.0681 17.2411 42.66 26.6665 42.66C36.0935 42.66 43.7333 35.0665 43.7333 25.7004C43.7221 16.3374 36.0871 8.752 26.6665 8.7392ZM34.0247 12.8015C33.9031 16.1822 32.0952 19.2813 29.204 21.0685C29.0472 20.9725 28.8824 20.8893 28.7129 20.8157C29.5576 19.0141 29.9528 17.0366 29.8648 15.0494C29.7576 13.6223 29.3272 12.2383 28.6057 10.9999C30.5128 11.2479 32.3528 11.8607 34.0247 12.8015ZM29.8664 25.7004C29.8664 27.4571 28.4329 28.8795 26.6665 28.8795C24.9001 28.8795 23.4666 27.4555 23.4666 25.7004C23.4666 23.9452 24.9001 22.5197 26.6665 22.5197C28.4313 22.5261 29.8616 23.9468 29.8664 25.7004ZM26.0777 10.8927C26.9817 12.1519 27.5513 13.6175 27.7321 15.1534C27.8105 16.9806 27.3993 18.7949 26.5369 20.4109C26.3449 20.4221 26.1641 20.4429 25.9817 20.4637C25.6937 17.075 23.9962 13.9599 21.3002 11.8671C22.8266 11.2831 24.4426 10.9535 26.0777 10.8927ZM19.1147 12.9167C20.3835 13.7167 21.465 14.7806 22.2826 16.0334C23.273 17.5806 23.8298 19.3629 23.8922 21.1965C23.737 21.2909 23.5882 21.3933 23.4442 21.5037C22.2906 19.8765 20.7611 18.5454 18.9851 17.6238C17.7515 16.9998 16.4204 16.5886 15.0492 16.4046C16.1788 15.0046 17.5563 13.8223 19.1147 12.9167ZM13.6844 18.387C17.0875 18.5086 20.2059 20.3053 22.0042 23.1788C21.9082 23.334 21.8234 23.4972 21.7482 23.6652C19.9355 22.8252 17.9451 22.4333 15.9468 22.5197C14.51 22.6269 13.118 23.054 11.8717 23.7708C12.1213 21.8781 12.7373 20.0493 13.6844 18.387ZM12.7469 31.033C12.1581 29.5147 11.8269 27.9099 11.7661 26.2844C13.0332 25.3852 14.5084 24.8204 16.054 24.6412C17.8923 24.5612 19.7195 24.9724 21.345 25.8284C21.3562 26.0172 21.377 26.2044 21.409 26.39C17.9947 26.6651 14.8524 28.3483 12.7469 31.033ZM17.3003 37.2425C15.9004 36.1161 14.7148 34.7465 13.8012 33.2058C14.6076 31.945 15.6764 30.8698 16.9371 30.0571C18.4939 29.0715 20.2875 28.5195 22.1322 28.4571C22.2266 28.6059 22.3338 28.7531 22.441 28.9019C20.8011 30.0459 19.4619 31.5658 18.5371 33.3322C17.9035 34.5562 17.4859 35.8793 17.3003 37.2425ZM19.3067 38.6009C19.4283 35.2217 21.2362 32.121 24.1274 30.3339C24.2858 30.4299 24.449 30.5147 24.6186 30.5883C23.7738 32.3898 23.3802 34.3674 23.4666 36.3545C23.5738 37.7817 24.0042 39.164 24.7258 40.4008C22.8186 40.156 20.9786 39.5432 19.3067 38.6009ZM27.2521 40.508C26.3481 39.2504 25.7801 37.7849 25.5993 36.2473C25.5209 34.4202 25.9321 32.6058 26.7929 30.9914C26.9801 30.9802 27.1641 30.9594 27.3481 30.9274C27.6345 34.3194 29.3304 37.4361 32.0312 39.5352C30.5032 40.1192 28.8889 40.4472 27.2521 40.508ZM34.2183 38.4873C32.9495 37.6873 31.868 36.6217 31.052 35.3689C30.06 33.8218 29.5048 32.0394 29.4408 30.2059C29.5992 30.1115 29.748 30.0059 29.8888 29.8875C31.8408 32.6858 34.8807 34.5466 38.2726 35.0201C37.1398 36.4073 35.7671 37.5769 34.2183 38.4873ZM39.6454 33.0154C36.2423 32.8938 33.1255 31.097 31.3272 28.2235C31.4232 28.0667 31.508 27.9035 31.5832 27.7371C33.2215 28.4955 35.0039 28.8907 36.8103 28.8923C37.0022 28.8923 37.1926 28.8923 37.3862 28.8811C38.8198 28.7739 40.215 28.3467 41.4597 27.6299C41.2117 29.5243 40.5942 31.353 39.6454 33.0154ZM40.5862 20.3693C41.1733 21.8861 41.5045 23.4908 41.5669 25.118C40.2982 26.0156 38.823 26.5804 37.2758 26.7611C35.4391 26.8459 33.6087 26.4364 31.9848 25.574C31.9752 25.39 31.9544 25.206 31.9208 25.0236C35.3383 24.7388 38.4774 23.0524 40.5862 20.3693ZM36.3943 21.3453C34.8391 22.3325 33.0423 22.886 31.2008 22.9452C31.1048 22.7964 30.9992 22.6381 30.892 22.5005C32.5288 21.3533 33.8663 19.8333 34.7943 18.0686C35.4279 16.8446 35.8455 15.5214 36.0295 14.1583C37.4294 15.2846 38.6166 16.6542 39.5302 18.1966C38.7254 19.4589 37.6566 20.5309 36.3943 21.3453Z" fill="#4BA82E"/>
</svg>
