<svg width="64" height="65" viewBox="0 0 64 65" fill="none" xmlns="http://www.w3.org/2000/svg">
<path fill-rule="evenodd" clip-rule="evenodd" d="M5.31994 41.2288L2.25721 40.3648C2.02518 40.2992 1.88597 40.2064 1.89077 39.4688V39.4528V33.8528L3.87018 33.4016C4.0622 33.3584 4.23822 33.3216 4.40304 33.2896H4.40624C5.60637 33.0496 6.39366 32.824 7.39377 31.352L8.44828 29.8C8.86273 29.1824 8.92354 28.4784 8.6115 27.8688C8.30427 27.2656 7.661 26.8448 7.04653 26.8448H1.89237C1.89237 26.0176 2.09239 25.3712 2.47483 24.9712C2.85407 24.5728 3.33092 24.488 3.66376 24.488H10.2965C10.4085 24.488 10.5141 24.4896 10.6117 24.4912H10.6309C11.3974 24.5056 12.0615 24.5168 13.0824 23.7216L19.2079 18.96C20.0368 18.3184 20.9265 17.9824 21.7761 17.9824H27.0839C27.6056 17.9824 28.028 17.5488 28.028 17.0112C28.028 16.4752 27.6056 16.0416 27.0839 16.0416H21.7793C20.512 16.0352 19.2287 16.512 18.0685 17.4128L11.9431 22.176C11.4406 22.5664 11.3062 22.5648 10.6629 22.5536C10.5493 22.552 10.4277 22.5504 10.2965 22.5504H10.1893H3.90539H3.66376C2.68285 22.5504 1.78195 22.928 1.12748 23.6128C0.597824 24.1648 -0.0278443 25.1984 0.000958867 26.9664V27.8176V33.0784V39.4576C-0.0102424 40.9648 0.578622 41.9024 1.75475 42.2368L5.79839 43.3824C6.43667 42.4883 5.74537 41.5741 5.31994 41.2288ZM6.83211 28.7904H1.89237V31.8672L3.46054 31.5104C3.66856 31.4624 3.86058 31.424 4.0414 31.3872C4.9535 31.2016 5.22873 31.144 5.8448 30.2416L6.83211 28.7904Z" fill="#4BA82E"/>
<path fill-rule="evenodd" clip-rule="evenodd" d="M56.1783 26.1776L50.2753 25.0064C49.6192 24.8768 49.4032 24.8304 49.1871 24.7088C48.9247 24.5568 48.5535 24.2256 47.8862 23.6256L47.8766 23.616C47.643 23.4064 47.3725 23.1616 47.0493 22.88L41.0663 17.56C39.4101 16.088 38.8132 16.0336 36.5426 16.0464H36.5378C36.1457 16.048 35.7025 16.0496 35.1728 16.0432L31.5628 16H31.5516C31.0348 16 30.6139 16.4272 30.6075 16.96C30.6027 17.496 31.0204 17.936 31.542 17.9424L35.1584 17.9856C35.6897 17.992 36.1345 17.9904 36.5282 17.9888H36.5506C38.5716 17.9792 38.65 17.9792 39.8341 19.0288L45.8172 24.3504C46.1356 24.6304 46.4044 24.8736 46.6413 25.0832L46.6445 25.0864C48.2046 26.4896 48.3599 26.6032 49.92 26.9136L55.8215 28.0832C61.5885 29.2304 62.1198 29.4832 62.1198 31.0816V31.6336H59.3291C58.0857 31.6336 57.0728 32.6736 57.0728 33.9536V34.9664C57.0728 36.2464 58.0857 37.2848 59.3291 37.2848H62.1198V41.6544C62.123 42.0368 62.0126 42.1536 61.9757 42.1888C61.8877 42.2736 61.5997 42.4704 60.742 42.4448H60.7132H57.196C56.1477 42.4006 56.2152 43.7203 56.3799 44.3856H60.6956C60.7548 44.3856 60.8124 44.3888 60.8716 44.3888C61.9501 44.3888 62.7406 44.12 63.2863 43.5728C63.7647 43.0928 64.0032 42.448 64 41.648V31.08C64.0064 27.7344 61.7133 27.2784 56.1783 26.1776ZM59.3275 35.3392H62.1166V33.5776H59.3275C59.1242 33.5776 58.961 33.744 58.961 33.9504V34.9632C58.961 35.1728 59.1226 35.3392 59.3275 35.3392Z" fill="#4BA82E"/>
<path d="M29.1422 30.0686C28.6206 30.0686 28.1982 30.5022 28.1982 31.0382C28.1982 31.5742 28.6206 32.0094 29.1422 32.0094H32.7598C33.2814 32.0094 33.7022 31.5742 33.7022 31.0382C33.7022 30.5022 33.2766 30.0686 32.7598 30.0686H29.1422Z" fill="#777777"/>
<path fill-rule="evenodd" clip-rule="evenodd" d="M50.3393 47.8799C52.8948 47.8799 55.1367 46.4847 56.3784 44.3951C56.4548 44.2666 56.9609 43.4086 57.1945 42.4543C57.3481 41.8639 57.4281 41.2399 57.4281 40.6015C57.4281 36.5855 54.2502 33.3215 50.3425 33.3215C47.171 33.3215 44.4795 35.4767 43.5786 38.4335H33.0238C32.499 38.4335 32.0765 38.8671 32.0765 39.4015C32.0765 39.9359 32.499 40.3695 33.0238 40.3695H43.2586L43.2554 40.4223C43.2554 40.449 43.2538 40.476 43.2523 40.5035C43.2506 40.5323 43.249 40.5617 43.249 40.5919C43.249 41.2303 43.3354 41.8543 43.4826 42.4431H19.2559C19.3904 41.8831 19.4624 41.3023 19.4624 40.7023C19.4624 40.5919 19.4592 40.4751 19.4544 40.3647H29.1114C29.6331 40.3647 30.0571 39.9311 30.0571 39.3951C30.0571 38.8607 29.6331 38.4287 29.1114 38.4287H19.1055C18.1726 35.5279 15.5099 33.4223 12.3784 33.4223C8.47396 33.4223 5.29761 36.6911 5.29761 40.7071C5.29761 40.8847 5.30561 41.0639 5.31841 41.2383C5.37114 41.7186 5.54066 42.8217 5.79686 43.3919C6.83858 46.0847 9.39566 47.9887 12.3784 47.9887C14.9771 47.9887 17.2509 46.5423 18.4847 44.3951H44.3003C45.5452 46.4847 47.7903 47.8799 50.3393 47.8799ZM12.3784 46.0495C9.51567 46.0495 7.18581 43.6559 7.18581 40.7119C7.18581 37.7647 9.51567 35.3711 12.3784 35.3711C15.2427 35.3711 17.5742 37.7647 17.5742 40.7119C17.5742 43.6559 15.2427 46.0495 12.3784 46.0495ZM50.3425 45.9407C47.4782 45.9407 45.1484 43.5439 45.1484 40.5999C45.1484 37.6575 47.4782 35.2639 50.3425 35.2639C53.2085 35.2639 55.5367 37.6575 55.5367 40.5999C55.5367 43.5439 53.2085 45.9407 50.3425 45.9407Z" fill="#777777"/>
<path d="M24.4637 19.9104L22.8187 19.9136C21.8154 19.9136 21.3673 20.2544 20.8473 20.6416C20.7896 20.6864 20.7272 20.7344 20.6584 20.7856L17.6981 22.976C16.7124 23.704 16.7124 24.6624 16.7124 25.072V26.0432C16.7124 26.704 17.2789 27.2336 18.0021 27.2464H18.0165L23.9164 27.2576H23.9676C24.6477 27.2576 25.1885 27.056 25.5806 26.6608C26.187 26.0448 26.187 25.2112 26.187 24.7616V21.5264C26.187 21.4992 26.1854 21.4704 26.1838 21.4432C26.1326 20.4992 25.475 19.9104 24.4637 19.9104ZM24.2972 24.7648C24.2972 24.8912 24.2972 25.1792 24.2524 25.2768C24.2268 25.2896 24.1356 25.3216 23.9372 25.3136H23.9244L18.6006 25.304V25.0704C18.6006 24.7888 18.6006 24.7024 18.8006 24.5552L21.761 22.3632C21.8266 22.3152 21.889 22.2688 21.9466 22.2256C21.953 22.2208 21.9594 22.216 21.9658 22.2112C22.3802 21.8976 22.433 21.8576 22.8203 21.8576L24.2972 21.8544V24.7648Z" fill="#777777"/>
<path d="M12.3787 37.6223C10.7227 37.6223 9.37549 39.0095 9.37549 40.7135C9.37549 42.4175 10.7227 43.8031 12.3787 43.8031C14.0363 43.8031 15.3851 42.4159 15.3851 40.7135C15.3851 39.0079 14.0363 37.6223 12.3787 37.6223ZM12.3787 41.8559C11.7659 41.8559 11.2651 41.3439 11.2651 40.7119C11.2651 40.0783 11.7643 39.5615 12.3787 39.5615C12.9947 39.5615 13.4955 40.0751 13.4955 40.7119C13.4955 41.3439 12.9947 41.8559 12.3787 41.8559Z" fill="#777777"/>
<path d="M50.3428 37.512C48.6868 37.512 47.3364 38.896 47.3364 40.6C47.3364 42.304 48.6868 43.6944 50.3428 43.6944C52.002 43.6944 53.3492 42.3072 53.3492 40.6C53.3492 38.8976 52.002 37.512 50.3428 37.512ZM50.3428 41.7472C49.7284 41.7472 49.2276 41.2352 49.2276 40.6C49.2276 39.968 49.7284 39.4528 50.3428 39.4528C50.9588 39.4528 51.4596 39.968 51.4596 40.6C51.4596 41.2336 50.9588 41.7472 50.3428 41.7472Z" fill="#777777"/>
<path d="M27.7549 21.5664V25.2704C27.7549 25.3024 27.7549 25.336 27.7549 25.368C27.7549 25.376 27.7549 25.3856 27.7549 25.3936C27.7501 25.7824 27.7437 26.3648 28.1902 26.824C28.6126 27.256 29.1999 27.2928 29.4831 27.2928C29.5151 27.2928 29.5423 27.2928 29.5663 27.2928H41.6413C41.6509 27.2928 41.6621 27.2928 41.6749 27.2928C42.3966 27.2656 42.9438 26.7488 42.9438 26.0896V25.2912C42.9438 24.7136 42.683 24.1888 42.2365 23.8528L38.2521 20.8336C38.1833 20.784 38.1177 20.7328 38.0601 20.6864C37.564 20.3088 37.0952 19.9536 36.0935 19.9536H29.4751C28.4622 19.9536 27.8046 20.5408 27.7565 21.4992C27.7549 21.5216 27.7549 21.544 27.7549 21.5664ZM29.6448 25.272V21.8944V21.8928H36.0919C36.4727 21.8928 36.5255 21.9328 36.932 22.2432C36.9976 22.2944 37.0696 22.3488 37.1384 22.4016L41.0332 25.3504H29.6448V25.272Z" fill="#777777"/>
</svg>
