<svg width="64" height="65" fill="none" xmlns="http://www.w3.org/2000/svg"><path fill-rule="evenodd" clip-rule="evenodd" d="M5.32 41.229l-3.063-.864c-.232-.066-.371-.159-.366-.896v-5.616l1.98-.451c.191-.044.367-.08.532-.112h.003c1.2-.24 1.988-.466 2.988-1.938L8.448 29.8c.415-.618.476-1.322.163-1.931-.307-.603-.95-1.024-1.564-1.024H1.892c0-.827.2-1.474.583-1.874.38-.398.856-.483 1.189-.483h6.633c.111 0 .217.002.315.003h.019c.766.015 1.43.026 2.451-.77l6.126-4.761c.829-.642 1.719-.978 2.568-.978h5.308a.957.957 0 00.944-.97.957.957 0 00-.944-.97h-5.305c-1.267-.007-2.55.47-3.71 1.37l-6.126 4.764c-.502.39-.637.389-1.28.378a25.487 25.487 0 00-.367-.004H3.665c-.981 0-1.882.378-2.537 1.063-.53.552-1.155 1.585-1.126 3.353v12.492c-.011 1.507.578 2.444 1.754 2.779l4.043 1.145c.639-.894-.053-1.808-.478-2.153zM6.832 28.79h-4.94v3.077l1.569-.357c.208-.048.4-.086.58-.123.912-.185 1.188-.243 1.804-1.145l.987-1.452zM56.178 26.178l-5.903-1.172c-.656-.13-.872-.176-1.088-.297-.262-.152-.633-.483-1.3-1.083l-.01-.01c-.234-.21-.505-.454-.828-.736l-5.983-5.32c-1.656-1.472-2.253-1.526-4.523-1.514h-.005c-.392.002-.835.004-1.365-.003L31.563 16h-.011a.958.958 0 00-.944.96c-.005.536.412.976.934.982l3.616.044c.532.006.977.004 1.37.003h.023c2.02-.01 2.099-.01 3.283 1.04l5.983 5.321c.319.28.587.524.824.733l.004.003c1.56 1.404 1.715 1.517 3.275 1.828l5.901 1.17c5.768 1.146 6.299 1.4 6.299 2.998v.552h-2.79c-1.244 0-2.257 1.04-2.257 2.32v1.012c0 1.28 1.013 2.319 2.256 2.319h2.79v4.37c.004.382-.106.499-.143.534-.088.085-.376.281-1.234.256h-3.546c-1.048-.044-.98 1.275-.816 1.94h4.316c.059 0 .116.004.176.004 1.078 0 1.869-.269 2.414-.816.479-.48.717-1.125.714-1.925V31.08c.006-3.346-2.287-3.802-7.822-4.902zm3.15 9.161h2.789v-1.761h-2.79a.369.369 0 00-.366.372v1.013c0 .21.162.376.367.376z" fill="#4BA82E"/><path d="M29.142 30.069a.957.957 0 00-.944.97c0 .535.423.97.944.97h3.618c.521 0 .942-.435.942-.97 0-.537-.425-.97-.942-.97h-3.618z" fill="#777"/><path fill-rule="evenodd" clip-rule="evenodd" d="M50.34 47.88c2.555 0 4.797-1.395 6.038-3.485.077-.128.583-.986.816-1.94.154-.591.234-1.215.234-1.853 0-4.016-3.178-7.28-7.085-7.28-3.172 0-5.864 2.155-6.764 5.111H33.024a.957.957 0 00-.947.968c0 .535.422.968.947.968h10.235l-.004.053-.003.082a1.49 1.49 0 00-.003.088c0 .638.086 1.262.234 1.851H19.256a7.433 7.433 0 00.198-2.078h9.657a.958.958 0 00.946-.97.956.956 0 00-.946-.966H19.105c-.932-2.901-3.595-5.007-6.727-5.007-3.904 0-7.08 3.27-7.08 7.285 0 .178.008.357.02.531.053.48.223 1.584.479 2.154 1.042 2.693 3.599 4.597 6.581 4.597 2.6 0 4.873-1.447 6.107-3.594H44.3c1.245 2.09 3.49 3.485 6.04 3.485zm-37.962-1.83c-2.862 0-5.192-2.394-5.192-5.338 0-2.947 2.33-5.34 5.192-5.34 2.865 0 5.196 2.393 5.196 5.34 0 2.944-2.331 5.337-5.196 5.337zm37.965-.11c-2.865 0-5.195-2.396-5.195-5.34 0-2.943 2.33-5.336 5.194-5.336 2.867 0 5.195 2.393 5.195 5.336 0 2.944-2.328 5.34-5.194 5.34z" fill="#777"/><path d="M24.464 19.91l-1.645.004c-1.004 0-1.452.34-1.972.728l-.189.144-2.96 2.19c-.986.728-.986 1.686-.986 2.096v.971c0 .661.567 1.19 1.29 1.203h.015l5.9.012h.05c.68 0 1.222-.202 1.614-.597.606-.616.606-1.45.606-1.9v-3.235l-.003-.083c-.051-.944-.709-1.533-1.72-1.533zm-.167 4.855c0 .126 0 .414-.045.512-.025.013-.116.045-.315.037h-.013l-5.323-.01v-.234c0-.281 0-.368.2-.515l2.96-2.192a19.567 19.567 0 00.205-.152c.414-.313.467-.353.854-.353l1.477-.004v2.91zM12.379 37.622c-1.656 0-3.004 1.388-3.004 3.092 0 1.703 1.348 3.09 3.004 3.09 1.657 0 3.006-1.388 3.006-3.09 0-1.706-1.349-3.092-3.006-3.092zm0 4.234c-.613 0-1.114-.512-1.114-1.144 0-.634.5-1.15 1.114-1.15.616 0 1.117.513 1.117 1.15 0 .632-.501 1.144-1.117 1.144zM50.343 37.512c-1.656 0-3.007 1.384-3.007 3.088 0 1.704 1.35 3.094 3.007 3.094 1.659 0 3.006-1.387 3.006-3.094 0-1.702-1.347-3.088-3.006-3.088zm0 4.235c-.615 0-1.115-.512-1.115-1.147 0-.632.5-1.147 1.115-1.147.616 0 1.117.515 1.117 1.147 0 .634-.501 1.147-1.117 1.147zM27.755 21.566v3.828c-.005.388-.011.97.435 1.43.423.432 1.01.469 1.293.469h12.192c.722-.027 1.269-.544 1.269-1.203v-.799c0-.577-.261-1.102-.708-1.438l-3.984-3.02a4.56 4.56 0 01-.192-.147c-.496-.377-.965-.732-1.967-.732h-6.618c-1.013 0-1.67.587-1.719 1.545l-.001.067zm1.89 3.706v-3.379h6.447c.38 0 .434.04.84.35l.206.159 3.895 2.948H29.645v-.078z" fill="#777"/></svg>