<svg width="64" height="64" fill="none" xmlns="http://www.w3.org/2000/svg"><path d="M57.026 14.13l-7.11-7.012c-2.09-2.062-2.452-2.227-5.228-2.227-.034 0-13.275-.001-13.443-.003-2.416-.026-2.983.29-5.461 3.058l-2.275 2.308-2.565-2.45.624-.634c.408-.415.627-.964.616-1.543a2.134 2.134 0 00-.667-1.518L17.923.672a2.195 2.195 0 00-1.566-.61 2.195 2.195 0 00-1.538.66L5.456 10.25a2.13 2.13 0 00-.62 1.545c.01.58.25 1.119.668 1.515l3.595 3.437c.413.395.954.61 1.53.61h.03a2.189 2.189 0 001.544-.656l.624-.634 2.554 2.44-3.405 3.458c-1.814 1.838-1.968 3.113-1.997 4.85L9.965 60.75c0 1.76 1.451 3.188 3.233 3.188h42.733c1.778 0 3.234-1.432 3.234-3.188V19.394c-.002-2.448-.48-3.63-2.14-5.264zM16.403 2.696l3.115 2.976-1.792 1.824-3.115-2.976 1.792-1.824zm-5.782 12.03L7.506 11.75l1.792-1.824 3.115 2.979-1.792 1.822zm.438-6.593l1.792-1.823 3.115 2.976-1.792 1.824-3.115-2.977zm3.528 6.142l4.599-4.678 2.56 2.448-4.604 4.672-2.555-2.442zm42.045 39.73h-7.74c.698 0 1.265.561 1.265 1.248 0 .686-.567 1.246-1.266 1.246h7.741v4.248a.707.707 0 01-.7.696H13.196a.7.7 0 01-.703-.696l.002-4.248h27.875a1.26 1.26 0 01-1.265-1.246c0-.688.568-1.248 1.265-1.248H12.498l.001-3.707h44.133v3.707zm0-6.203H12.499l.01-20.957c.022-1.392.093-1.938 1.28-3.141l13.83-14.042a1.04 1.04 0 00.042-.043c1.011-1.13 1.683-1.832 2.13-2.081.27-.152.511-.165 1.427-.156.176.002 13.374.004 13.374.004h.008c1.04 0 1.622-.002 1.94.132.334.14.769.564 1.583 1.365l7.107 7.011c1.116 1.101 1.397 1.628 1.397 3.501v28.407h.005z" fill="#777"/><path d="M46.2 11.592c-.816-.818-1.157-.95-2.42-.95h-7.556c-.78 0-1.462.425-1.774 1.11-.33.718-.192 1.576.352 2.187l14.704 16.443c.275.306 1.017 1.133 1.963 1.132.185 0 .38-.034.58-.108 1.28-.476 1.28-2.13 1.28-2.836v-7.373c0-2.056-.169-2.747-1.74-4.29L46.2 11.592zm4.598 16.462l-13.34-14.916 6.737.004 5.605 5.53c.998.982.998.982.998 2.526v6.856z" fill="#777"/><path d="M42.813 29.837c-3.298-1.146-6.557-.954-9.181.542-1.61.919-2.909 2.288-3.826 3.994-.912-1.703-2.21-3.072-3.824-3.994-2.627-1.496-5.888-1.688-9.182-.542-.589.205-.938.8-.822 1.405.638 3.387 2.436 6.076 5.064 7.573 1.496.85 3.196 1.28 4.993 1.28.82 0 1.658-.092 2.506-.27v4.017c0 .69.566 1.246 1.265 1.246.7 0 1.266-.56 1.266-1.246v-4.016c.848.177 1.686.268 2.502.268 1.797 0 3.501-.428 4.994-1.28 2.63-1.495 4.429-4.185 5.066-7.572.12-.605-.232-1.2-.821-1.405zm-20.506 6.816c-1.697-.966-2.944-2.645-3.58-4.784 2.196-.526 4.292-.298 5.99.669 1.7.968 2.945 2.643 3.582 4.784-2.2.524-4.294.3-5.992-.67zm14.995 0c-1.7.966-3.793 1.194-5.993.669.635-2.141 1.883-3.816 3.584-4.784 1.7-.967 3.79-1.195 5.99-.67-.633 2.14-1.881 3.82-3.58 4.785z" fill="#4BA82E"/></svg>