<svg width="64" height="65" fill="none" xmlns="http://www.w3.org/2000/svg"><path d="M62.933 29.688h-6.4c-.59 0-1.069.473-1.067 1.059v6.36H51.1a26.402 26.402 0 002.2-12.018C52.448 11.755 41.85 1.082 28.447.06A26.757 26.757 0 008.45 7.15 26.424 26.424 0 000 26.507c.06 11.58 7.632 21.8 18.74 25.29l-.308.628-4.268-1.236a1.057 1.057 0 00-1.323.717l-1.195 4.072c-.074.27-.043.558.086.808.14.242.369.427.64.504L34.9 63.821c.1.032.2.043.3.042.476 0 .893-.31 1.028-.765l1.194-4.069a1.108 1.108 0 00-.087-.806 1.077 1.077 0 00-.638-.509l-1.23-.36 1.665-3.152a7382.148 7382.148 0 0118.334 1.88v2.226c0 .584.478 1.059 1.069 1.059h6.4c.587 0 1.065-.475 1.065-1.06v-27.56a1.065 1.065 0 00-1.067-1.06zM34.474 61.49l-20.48-5.938.598-2.033 20.48 5.936-.598 2.035zM20.512 53.03l.33-.669a28.06 28.06 0 003.649.565c.256.022 4.64.465 10.345 1.048l-1.462 2.774-12.863-3.718zm30.687.485c-2.778-.287-6.315-.648-9.894-1.015-8.037-.825-16.29-1.672-16.645-1.7-9.67-.79-17.964-7.168-21.158-16.275C.31 25.422 2.816 15.3 9.9 8.709a24.373 24.373 0 0116.745-6.582c.555 0 1.109.02 1.664.052 8.134.54 15.467 5.061 19.566 12.063a24.233 24.233 0 01.882 22.866h-1.823v2.119H51.2v14.289zm4.265.437c-.553-.053-1.278-.129-2.13-.225v-14.5h2.13v14.724zm6.4 3.294H57.6V31.806h4.265v25.44z" fill="#777"/><path d="M26.666 8.74C17.24 8.74 9.6 16.333 9.6 25.7c0 9.368 7.641 16.96 17.066 16.96 9.427 0 17.067-7.593 17.067-16.96-.01-9.363-7.646-16.948-17.066-16.96zm7.359 4.062a10.153 10.153 0 01-4.821 8.267 3.957 3.957 0 00-.491-.253 12.298 12.298 0 001.152-5.767 9.449 9.449 0 00-1.26-4.05c1.908.249 3.748.862 5.42 1.803zM29.866 25.7c0 1.757-1.433 3.18-3.2 3.18-1.766 0-3.2-1.424-3.2-3.18 0-1.755 1.434-3.18 3.2-3.18 1.765.006 3.196 1.427 3.2 3.18zm-3.788-14.807a9.138 9.138 0 011.654 4.26 10.23 10.23 0 01-1.195 5.258c-.192.011-.373.032-.555.053a12.193 12.193 0 00-4.682-8.597 14.93 14.93 0 014.778-.974zm-6.963 2.024c1.269.8 2.35 1.864 3.168 3.116a10.22 10.22 0 011.61 5.163 5.04 5.04 0 00-.449.308 12.554 12.554 0 00-4.459-3.88 12.362 12.362 0 00-3.936-1.22 14.738 14.738 0 014.066-3.487zm-5.43 5.47a10.243 10.243 0 018.32 4.792c-.097.155-.182.318-.257.486a12.514 12.514 0 00-5.801-1.145 9.604 9.604 0 00-4.075 1.25c.25-1.892.865-3.72 1.812-5.383zm-.938 12.646a14.647 14.647 0 01-.98-4.749 9.25 9.25 0 014.287-1.643c1.838-.08 3.666.331 5.291 1.187.011.19.032.376.064.562a12.256 12.256 0 00-8.662 4.643zm4.553 6.21a15.01 15.01 0 01-3.499-4.037 10.436 10.436 0 013.136-3.149 10.367 10.367 0 015.195-1.6c.095.149.202.296.309.445a12.438 12.438 0 00-3.904 4.43 12.04 12.04 0 00-1.237 3.91zm2.007 1.358c.121-3.38 1.93-6.48 4.82-8.267.159.096.322.18.492.254a12.316 12.316 0 00-1.152 5.767 9.427 9.427 0 001.259 4.046 14.903 14.903 0 01-5.42-1.8zm7.945 1.907a9.122 9.122 0 01-1.653-4.26 10.236 10.236 0 011.194-5.257c.187-.01.371-.032.555-.064a12.2 12.2 0 004.683 8.608 14.937 14.937 0 01-4.779.973zm6.966-2.02a10.401 10.401 0 01-3.166-3.12 10.222 10.222 0 01-1.611-5.162c.158-.095.307-.2.448-.319a12.292 12.292 0 008.384 5.133 15.111 15.111 0 01-4.055 3.467zm5.427-5.473a10.24 10.24 0 01-8.318-4.791c.096-.157.181-.32.256-.487a12.467 12.467 0 005.227 1.155c.192 0 .383 0 .576-.01a9.604 9.604 0 004.074-1.252 14.721 14.721 0 01-1.815 5.385zm.941-12.646c.587 1.517.919 3.122.98 4.749a9.295 9.295 0 01-4.29 1.643 10.278 10.278 0 01-5.291-1.187 4.265 4.265 0 00-.064-.55 12.317 12.317 0 008.665-4.655zm-4.192.976a10.318 10.318 0 01-5.193 1.6 6.27 6.27 0 00-.309-.445 12.54 12.54 0 003.902-4.431 11.999 11.999 0 001.236-3.91 14.996 14.996 0 013.5 4.038 10.402 10.402 0 01-3.136 3.148z" fill="#4BA82E"/></svg>