<svg width="64" height="65" fill="none" xmlns="http://www.w3.org/2000/svg"><g clip-path="url(#clip0)"><path d="M43.05 44.98c-6.903 5.895-17.213 5.351-23.461-1.233-6.247-6.584-6.247-16.909 0-23.494 6.248-6.584 16.557-7.128 23.46-1.234l-.37-2.955c-8.01-5.38-18.767-3.984-25.133 3.264-6.368 7.248-6.368 18.098 0 25.344 6.365 7.247 17.122 8.645 25.13 3.266l.374-2.957z" fill="#777"/><path fill-rule="evenodd" clip-rule="evenodd" d="M49.502 5.239A31.634 31.634 0 0032 0C14.326 0 0 14.326 0 32s14.326 32 32 32a31.658 31.658 0 0017.502-5.237l-1.865-1.33a29.644 29.644 0 01-13.503 4.36c.972-1.652.988-3.7.04-5.367a24.346 24.346 0 008.725-2.44l-.233-2.29c-9.423 5.109-21.148 2.829-27.965-5.446-6.818-8.272-6.818-20.216 0-28.49 6.817-8.277 18.542-10.56 27.965-5.448l.236-2.296A24.708 24.708 0 0032.46 7.48l-.288-.279a3.226 3.226 0 01-.299-4.192l.651-.853a29.565 29.565 0 0115.114 4.416l1.865-1.332zm-31.976.65l-.128 1.078a3.203 3.203 0 002.346 3.465l.386.11a24.229 24.229 0 019.696-2.966 5.366 5.366 0 01.041-5.355 29.754 29.754 0 00-12.34 3.669zm.383 6.047a5.352 5.352 0 01-2.645-4.66 30.126 30.126 0 00-8.854 9.343l.427 1.002a3.201 3.201 0 003.765 1.824l.384-.096a24.83 24.83 0 016.923-7.413zm-8.159 9.75a5.371 5.371 0 01-4.619-2.72 29.76 29.76 0 00-2.987 12.512l.864.652a3.23 3.23 0 004.192-.3l.278-.276c.061-3.412.834-6.773 2.272-9.867zM2.22 34.136a29.707 29.707 0 003.668 12.34l1.077.128a3.226 3.226 0 003.467-2.347l.106-.38a24.24 24.24 0 01-2.965-9.7 5.425 5.425 0 01-2.645.715 5.234 5.234 0 01-2.709-.756zm14.4 23.457l1-.429a3.203 3.203 0 001.826-3.766l-.096-.384a24.805 24.805 0 01-7.412-6.922 5.36 5.36 0 01-4.599 2.67h-.053a30.088 30.088 0 009.333 8.831zm14.857 4.264l.651-.864a3.224 3.224 0 00-.3-4.192l-.278-.278a24.346 24.346 0 01-9.888-2.282 5.332 5.332 0 01-2.708 4.62 29.772 29.772 0 0012.523 2.996z" fill="#777"/><path fill-rule="evenodd" clip-rule="evenodd" d="M42.672 47.97l.004-.032.002-.002v.008l-.003.01v.003a.178.178 0 01-.003.013z" fill="#777"/><path d="M47.4 32.2a3.201 3.201 0 00-6.4 0 3.201 3.201 0 006.4 0zm-3.2 1.066a1.066 1.066 0 110-2.133 1.066 1.066 0 110 2.133z" fill="#777"/><path fill-rule="evenodd" clip-rule="evenodd" d="M51.2 4.267a1.009 1.009 0 00-.62.203l-1.078.768-1.865 1.333-4.522 3.232a.66.66 0 00-.213.213c-.17.17-.228 1.602-.236 2.296V16l.002.016.382 3.003a7.394 7.394 0 00-.384 2.316 7.514 7.514 0 003.53 6.334 7.227 7.227 0 00-.84 1.589S45 30.5 45 32s.357 2.74.357 2.74c.213.564.499 1.099.84 1.591a7.514 7.514 0 00-3.531 6.335c.003.787.134 1.568.384 2.315l-.378 2.989a.114.114 0 00-.006.033v3.693c-.093.622-.176 1.95.233 2.29a.67.67 0 00.216.213l4.522 3.233 1.865 1.331 1.079.768c.177.135.397.207.619.203C58.378 59.734 64 47.554 64 32c0-15.552-5.622-27.733-12.8-27.733zM48 14.581l.243.331c.19.256.26.586.181.896-.072.31-.283.571-.574.704a5.334 5.334 0 00.428 9.814c.344.13.597.428.672.79a1.04 1.04 0 01-.321.991 5.314 5.314 0 000 7.788c.278.25.4.627.321.99a1.08 1.08 0 01-.672.79 5.337 5.337 0 00-3.465 4.767 5.328 5.328 0 003.037 5.046c.288.135.502.394.574.704.078.312.01.64-.18.896L48 49.42v1.717l4.115 2.944c2.829-1.76 6.55-10.057 6.55-22.08 0-12.02-3.721-20.32-6.55-22.08L48 12.864v1.717zm-3.2 38.208l6.72 4.8C57.163 57.163 61.866 45.623 61.866 32c0-13.62-4.704-25.162-10.346-25.589l-6.72 4.8v4.437l.211.279c.275-.27.57-.517.888-.736a1.07 1.07 0 01-.033-.257v-2.623a1.07 1.07 0 01.45-.864l5.076-3.628c.29-.206.66-.254.992-.128 4.138 1.514 8.416 11.03 8.416 24.31s-4.278 22.793-8.414 24.31a1.15 1.15 0 01-.373.076 1.07 1.07 0 01-.62-.203l-5.076-3.627a1.07 1.07 0 01-.45-.866v-2.625c0-.085.011-.172.034-.255a6.417 6.417 0 01-.888-.736l-.213.279v4.435z" fill="#4BA82E"/><path d="M38.4 32a6.4 6.4 0 10-6.4 6.4 6.406 6.406 0 006.4-6.4zM32 36.266a4.266 4.266 0 110-8.533A4.266 4.266 0 0136.266 32 4.264 4.264 0 0132 36.266zM23.467 32a3.201 3.201 0 00-6.4 0c0 1.766 1.434 3.2 3.2 3.2 1.767 0 3.2-1.434 3.2-3.2zm-3.2 1.066a1.066 1.066 0 110-2.133 1.066 1.066 0 110 2.133zM25.6 24.533a3.2 3.2 0 100-6.4 3.2 3.2 0 000 6.4zm0-4.266a1.067 1.067 0 110 2.134 1.067 1.067 0 010-2.134zM38.4 18.133a3.2 3.2 0 100 6.4 3.2 3.2 0 000-6.4zm0 4.267a1.066 1.066 0 01-1.066-1.067 1.066 1.066 0 112.132 0c0 .59-.477 1.067-1.066 1.067zM35.2 42.666a3.2 3.2 0 106.4 0 3.2 3.2 0 00-6.4 0zm4.266 0A1.067 1.067 0 1138.4 41.6c.589 0 1.066.478 1.066 1.066zM25.6 39.466a3.201 3.201 0 000 6.4 3.2 3.2 0 000-6.4zm0 4.268a1.068 1.068 0 010-2.134 1.068 1.068 0 010 2.134z" fill="#777"/></g><defs><clipPath id="clip0"><path fill="#fff" d="M0 0h64v64H0z"/></clipPath></defs></svg>