<svg width="64" height="65" fill="none" xmlns="http://www.w3.org/2000/svg"><path d="M32 0C14.328 0 0 14.326 0 32s14.328 32 32 32c17.674 0 32-14.326 32-32C63.978 14.334 49.666.02 32 0zm29.84 30.933h-4.269a25.492 25.492 0 00-6.744-16.256l3.016-3.015a29.75 29.75 0 017.997 19.27zM33.066 2.16a29.758 29.758 0 0119.272 7.995l-3.016 3.016a25.505 25.505 0 00-16.256-6.744V2.16zm-2.133 0v4.267a25.509 25.509 0 00-16.256 6.744l-3.013-3.016A29.75 29.75 0 0130.933 2.16zm-20.778 9.504l3.016 3.014a25.502 25.502 0 00-6.744 16.256H2.16a29.75 29.75 0 017.995-19.27zM2.16 33.066h4.267a25.505 25.505 0 006.744 16.256l-3.016 3.016A29.758 29.758 0 012.16 33.066zM30.933 61.84a29.78 29.78 0 01-19.27-8l3.014-3.016a25.514 25.514 0 0016.256 6.747v4.269zM8.533 32C8.533 19.04 19.04 8.533 32 8.533c12.96 0 23.466 10.505 23.466 23.467 0 12.96-10.506 23.466-23.466 23.466C19.046 55.453 8.547 44.954 8.533 32zm24.533 29.84v-4.269a25.488 25.488 0 0016.256-6.744l3.016 3.016a29.751 29.751 0 01-19.272 7.997zm20.777-9.502l-3.016-3.016a25.505 25.505 0 006.744-16.256h4.269a29.751 29.751 0 01-7.997 19.272z" fill="#777"/><path d="M34.135 42.666h-4.268a4.266 4.266 0 00-4.267 4.268 4.266 4.266 0 004.267 4.266h4.268a4.264 4.264 0 004.265-4.266 4.265 4.265 0 00-4.265-4.268zm0 6.4h-4.268a2.132 2.132 0 110-4.266h4.268a2.133 2.133 0 010 4.266zM14.933 32c-.005-8.651 6.465-15.936 15.057-16.95l-.248-2.119c-10.534 1.251-18.06 10.807-16.808 21.341a19.223 19.223 0 001.565 5.634l1.944-.879A16.918 16.918 0 0114.933 32zM49.066 32a16.879 16.879 0 01-1.51 7.029l1.945.878c4.365-9.669.062-21.045-9.61-25.408a19.286 19.286 0 00-5.633-1.565l-.247 2.119C42.6 16.064 49.072 23.349 49.066 32zM18.133 40.534a3.2 3.2 0 100 6.4 3.2 3.2 0 000-6.4zm0 4.266a1.068 1.068 0 110-2.135 1.068 1.068 0 010 2.135zM45.865 40.534a3.2 3.2 0 100 6.4 3.2 3.2 0 000-6.4zm0 4.266a1.067 1.067 0 11.004-2.135 1.067 1.067 0 01-.004 2.135zM39.718 28.211l.554-2.059-1.886-.506.508-1.884-2.062-.552-.666 2.488-3.1 1.788V23.91l1.822-1.821-1.51-1.509L32 21.96l-1.38-1.38-1.508 1.509 1.82 1.82v3.578l-3.097-1.788-.665-2.488-2.061.552.505 1.884-1.884.506.552 2.06 2.488-.668 3.097 1.789-3.097 1.789-2.488-.666-.552 2.06 1.884.506-.505 1.884 2.06.55.666-2.488 3.098-1.787v3.579l-1.82 1.818 1.508 1.51 1.38-1.38 1.377 1.38 1.51-1.51-1.822-1.818v-3.58l3.1 1.788.666 2.488 2.063-.55-.51-1.884 1.887-.507-.553-2.059-2.487.666-3.097-1.79 3.097-1.788 2.486.667z" fill="#4BA82E"/></svg>