<svg width="64" height="64" fill="none" xmlns="http://www.w3.org/2000/svg"><path d="M63.94 57.803l-5.162-14.646a1.032 1.032 0 00-.972-.695h-5.163v-2.094h5.163a1.04 1.04 0 001.034-1.045V5.846A1.042 1.042 0 0057.806 4.8H6.194a1.04 1.04 0 00-1.032 1.046v33.477a1.04 1.04 0 001.032 1.045h5.161v2.094H6.194c-.436 0-.826.279-.972.695L.061 57.803a1.05 1.05 0 00.625 1.338c.11.037.23.059.348.059h61.934A1.04 1.04 0 0064 58.154c0-.12-.02-.239-.06-.35zM7.228 38.278V6.893h49.547v31.385H7.227zm43.354 2.09v2.094H13.419v-2.094h37.162zM6.92 44.554h50.164l1.475 4.185H5.446l1.476-4.185zM2.499 57.109l2.21-6.279h54.583l2.213 6.279H2.498z" fill="#777"/><path d="M39.225 52.923h-14.45v2.093h14.45v-2.093z" fill="#777"/><path d="M50.58 19.446h-4.127c-.571 0-1.034.47-1.032 1.047v1.046H43.36v-1.046a1.04 1.04 0 00-1.034-1.047h-5.161v-2.092h1.033c.57 0 1.034-.47 1.034-1.047v-4.184c0-.579-.466-1.046-1.034-1.046H25.811a1.04 1.04 0 00-1.033 1.046v4.184c0 .58.464 1.047 1.033 1.047h1.032v2.092H21.68a1.04 1.04 0 00-1.034 1.047v1.046h-2.064v-1.046c0-.578-.464-1.047-1.033-1.047h-4.13a1.04 1.04 0 00-1.032 1.047v12.553c0 .578.463 1.044 1.032 1.044h4.128c.571 0 1.034-.466 1.034-1.044V32h2.064v1.046c0 .578.464 1.044 1.033 1.044h20.645c.57 0 1.034-.466 1.034-1.044V32h2.062v1.046a1.04 1.04 0 001.034 1.047h4.128c.566 0 1.032-.469 1.032-1.047V20.493a1.04 1.04 0 00-1.032-1.047zM16.518 32h-2.064V21.54h2.064V32zm4.128-2.093H18.58v-6.275h2.064v6.275zm6.195-14.645V13.17h10.323v2.092H26.84zm8.258 2.092v2.092h-6.194v-2.092h6.194zM41.29 32h-18.58V21.54h18.58V32zm4.128-2.093h-2.062v-6.275h2.062v6.275zM49.55 32h-2.064V21.54h2.065L49.55 32z" fill="#4BA82E"/></svg>