<svg width="64" height="64" fill="none" xmlns="http://www.w3.org/2000/svg"><path d="M7.467 6.4c-.589 0-1.067.477-1.067 1.067v17.067a1.067 1.067 0 002.134-.001V7.467A1.068 1.068 0 007.467 6.4zM12.8 6.4c-.589 0-1.067.477-1.067 1.067v9.6a1.066 1.066 0 102.134 0v-9.6c0-.59-.478-1.067-1.067-1.067zM7.467 28.8c-.589 0-1.067.477-1.067 1.067v17.067a1.067 1.067 0 002.134 0V29.867A1.068 1.068 0 007.467 28.8zM12.8 22.4c-.589 0-1.067.477-1.067 1.067v16a1.067 1.067 0 102.134 0v-16c0-.59-.478-1.067-1.067-1.067zM12.8 43.734c-.589 0-1.067.476-1.067 1.066v13.866a1.067 1.067 0 102.134 0V44.8c0-.59-.478-1.066-1.067-1.066zM18.133 14.933c-.589 0-1.067.477-1.067 1.067v16c0 .59.478 1.066 1.067 1.066S19.2 32.59 19.2 32V16c0-.59-.478-1.067-1.067-1.067zM18.133 37.334c-.589 0-1.067.476-1.067 1.066v18.134a1.067 1.067 0 002.134 0V38.4c0-.59-.478-1.066-1.067-1.066z" fill="#777"/><path fill-rule="evenodd" clip-rule="evenodd" d="M34.134 27.734V22.4c0-.59-.478-1.067-1.068-1.067H25.6V4.802A4.809 4.809 0 0020.798 0H4.802A4.809 4.809 0 000 4.802v54.395A4.81 4.81 0 004.802 64h15.995a4.81 4.81 0 004.803-4.803V42.666h7.466c.59 0 1.068-.476 1.068-1.066V27.734zM8.533 61.866h12.265a2.671 2.671 0 002.67-2.67v-.53H22.4a1.065 1.065 0 110-2.132h1.067v-6.4H22.4a1.067 1.067 0 010-2.134h1.067v-6.4H22.4a1.066 1.066 0 110-2.133h1.067v-6.4H22.4a1.067 1.067 0 110-2.133h1.067v-6.4H22.4a1.067 1.067 0 110-2.134h1.067V16H22.4a1.066 1.066 0 110-2.133h1.067v-6.4H22.4a1.067 1.067 0 110-2.134h1.067v-.531a2.672 2.672 0 00-2.669-2.67H19.2v8.535a1.067 1.067 0 01-2.134-.001V2.133H4.802a2.672 2.672 0 00-2.67 2.669v.53H3.2a1.067 1.067 0 110 2.135H2.133v6.4H3.2A1.066 1.066 0 113.2 16H2.133v6.4H3.2a1.066 1.066 0 110 2.133H2.133v6.4H3.2a1.067 1.067 0 110 2.133H2.133v6.4H3.2a1.067 1.067 0 010 2.134H2.133V48H3.2a1.067 1.067 0 110 2.134H2.133v6.4H3.2a1.066 1.066 0 110 2.132H2.133v.53a2.671 2.671 0 002.669 2.67H6.4v-9.6a1.067 1.067 0 012.133 0v9.6zM25.6 40.534H32V23.467h-6.4v17.067z" fill="#777"/><path d="M54.088 28.046a1.065 1.065 0 00-1.509 0l-3.2 3.2a1.066 1.066 0 00.759 1.82c.272 0 .545-.103.755-.312l3.2-3.2c.41-.416.41-1.092-.005-1.508zM56.846 30.18l-5.334 5.332a1.062 1.062 0 000 1.509 1.073 1.073 0 001.51 0l5.331-5.335c.42-.417.42-1.09 0-1.508a1.065 1.065 0 00-1.507.001z" fill="#777"/><path fill-rule="evenodd" clip-rule="evenodd" d="M60.131 23.467H56.4v-3.2h2.131c1.767 0 3.2-1.435 3.2-3.2 0-1.765-1.433-3.2-3.2-3.2H56.4v-2.134h2.131c1.767 0 3.2-1.435 3.2-3.2 0-1.765-1.433-3.2-3.2-3.2H56.4V1.067C56.4.477 55.922 0 55.331 0h-4.265C50.476 0 50 .477 50 1.067v4.267h-2.134a3.202 3.202 0 00-3.2 3.2c0 1.765 1.433 3.2 3.2 3.2H50v2.133h-2.134a3.202 3.202 0 00-3.2 3.2c0 1.765 1.433 3.2 3.2 3.2H50v3.2h-3.731a3.74 3.74 0 00-3.738 3.736v.531H34v2.133h8.531v4.267H34v2.132h8.531v1.6A3.74 3.74 0 0046.27 41.6H60.13a3.739 3.739 0 003.735-3.734V27.202a3.739 3.739 0 00-3.735-3.735zM54.266 2.133H52.13v3.2h2.135v-3.2zm-6.4 5.333a1.067 1.067 0 000 2.134H58.53a1.068 1.068 0 100-2.134H47.866zm6.4 4.267H52.13v2.133h2.135v-2.133zM47.866 16a1.067 1.067 0 000 2.134H58.53a1.068 1.068 0 100-2.134H47.866zm6.4 4.267H52.13v3.2h2.135v-3.2zm5.865 19.199c.882 0 1.6-.719 1.6-1.6V27.202c0-.884-.718-1.602-1.6-1.602H46.27c-.885 0-1.603.718-1.603 1.602v10.664c0 .881.718 1.6 1.603 1.6H60.13z" fill="#4BA82E"/></svg>