<svg width="64" height="65" fill="none" xmlns="http://www.w3.org/2000/svg"><path d="M61.563 17.31A2.442 2.442 0 0064 14.87v-4.433a2.442 2.442 0 00-2.437-2.439h-5.565v-1.55a4.053 4.053 0 00-4.05-4.048h-9.863a4.056 4.056 0 00-4.053 4.048v1.55H25.968v-1.55A4.054 4.054 0 0021.915 2.4h-9.862a4.054 4.054 0 00-4.051 4.048v1.55H2.438A2.443 2.443 0 000 10.437v4.433a2.442 2.442 0 002.438 2.44h.045v31.565c0 2.775 1.957 5.101 4.565 5.672v3.335c0 2.05 1.67 3.718 3.725 3.718h5.512a3.727 3.727 0 003.726-3.718v-3.197h27.392c.6 3.909 3.99 6.915 8.069 6.915 4.506 0 8.168-3.662 8.168-8.16a8.12 8.12 0 00-2.125-5.485V17.31h.048zM42.085 4.9h9.862c.856 0 1.554.695 1.554 1.55V8H40.534V6.448h-.001a1.55 1.55 0 011.552-1.549zM10.5 6.447c0-.854.696-1.55 1.552-1.55h9.862c.856 0 1.552.694 1.552 1.55v1.55H10.501v-1.55zm7.01 51.434c0 .672-.551 1.222-1.226 1.222h-5.512c-.675 0-1.226-.55-1.226-1.222v-3.197h7.963v3.197zm10.019-5.695l-.002-16.069c0-.822.67-1.49 1.493-1.49h29.998V46.09a8.147 8.147 0 00-3.547-.812c-4.075 0-7.466 3-8.069 6.906l-19.873.003zm27.942 6.914a5.668 5.668 0 01-5.666-5.66c0-3.12 2.541-5.662 5.666-5.662 3.126 0 5.669 2.543 5.669 5.663 0 3.121-2.543 5.659-5.669 5.659zm6.029-44.288H37.616a1.249 1.249 0 100 2.497h21.403v14.818H29.021a3.995 3.995 0 00-3.992 3.99v16.07H8.298a3.316 3.316 0 01-3.316-3.313V17.31h21.394a1.249 1.249 0 100-2.498H2.501v-4.314h59v4.315z" fill="#777"/><path d="M34.327 29.02H51.44a4.074 4.074 0 004.069-4.066 4.07 4.07 0 00-4.069-4.063H34.327a4.07 4.07 0 00-4.068 4.063 4.073 4.073 0 004.068 4.067zm0-5.631H51.44a1.567 1.567 0 010 3.133H34.327a1.567 1.567 0 010-3.133zM18.18 39.656h-3.697l2.651-5.326a1.248 1.248 0 10-2.236-1.11l-3.55 7.13c-.406.813.209 1.81 1.122 1.807h3.69l-2.655 5.321a1.25 1.25 0 001.119 1.807c.46 0 .9-.253 1.12-.691l3.553-7.132c.1-.2.143-.428.127-.65a1.262 1.262 0 00-1.245-1.156zM23.349 20.893a4.069 4.069 0 00-4.066 4.062 4.074 4.074 0 004.066 4.067 4.073 4.073 0 004.067-4.067 4.07 4.07 0 00-4.067-4.062zm.001 5.629a1.567 1.567 0 11.001-3.134 1.567 1.567 0 010 3.134zM16.627 24.955a4.07 4.07 0 00-4.067-4.062 4.069 4.069 0 00-4.066 4.062 4.072 4.072 0 004.066 4.067 4.073 4.073 0 004.067-4.067zm-5.633 0c0-.862.702-1.566 1.566-1.566.864 0 1.566.702 1.566 1.566a1.567 1.567 0 01-3.133 0z" fill="#4BA82E"/><path d="M31.51 37.62c-.69 0-1.25.56-1.25 1.249v.006c0 .691.56 1.243 1.25 1.243a1.25 1.25 0 100-2.5zM31.51 43.102c-.69 0-1.25.56-1.25 1.25v.013c0 .688.56 1.238 1.25 1.238a1.25 1.25 0 000-2.5zM36.522 37.62c-.692 0-1.25.56-1.25 1.249v.006c0 .691.56 1.243 1.25 1.243s1.25-.563 1.25-1.25c0-.69-.56-1.249-1.25-1.249zM36.522 43.102c-.692 0-1.25.56-1.25 1.25v.013c0 .688.56 1.238 1.25 1.238s1.25-.566 1.25-1.251c0-.69-.56-1.25-1.25-1.25zM41.53 37.62c-.69 0-1.25.56-1.25 1.249v.006a1.249 1.249 0 101.25-1.256zM41.53 43.102c-.69 0-1.25.56-1.25 1.25v.013c0 .688.562 1.238 1.25 1.238a1.251 1.251 0 000-2.5zM56.509 38.875c0-.691-.563-1.25-1.25-1.25h-8.112c-.69 0-1.25.562-1.25 1.25a1.25 1.25 0 001.25 1.247h8.112c.691 0 1.25-.556 1.25-1.247zM55.472 52.187c-.691 0-1.25.56-1.25 1.25v.006c0 .691.56 1.243 1.25 1.243s1.25-.565 1.25-1.25c0-.689-.559-1.249-1.25-1.249zM31.994 17.31H32c.69 0 1.246-.56 1.246-1.25a1.252 1.252 0 00-2.504 0c0 .692.56 1.25 1.252 1.25z" fill="#777"/></svg>