<svg width="25" height="24" viewBox="0 0 25 24" fill="none" xmlns="http://www.w3.org/2000/svg">
<path d="M12.8001 23.728L6.43605 17.364C5.17739 16.1054 4.32024 14.5017 3.97298 12.7559C3.62572 11.0101 3.80396 9.20047 4.48515 7.55595C5.16634 5.91142 6.31989 4.50582 7.79993 3.51689C9.27997 2.52796 11.02 2.00012 12.8001 2.00012C14.5801 2.00012 16.3201 2.52796 17.8002 3.51689C19.2802 4.50582 20.4338 5.91142 21.115 7.55595C21.7962 9.20047 21.9744 11.0101 21.6271 12.7559C21.2799 14.5017 20.4227 16.1054 19.1641 17.364L12.8001 23.728ZM17.7501 15.95C18.7289 14.971 19.3956 13.7238 19.6656 12.3659C19.9356 11.0081 19.797 9.60064 19.2671 8.3216C18.7373 7.04256 17.8401 5.94935 16.689 5.18021C15.5378 4.41107 14.1845 4.00055 12.8001 4.00055C11.4156 4.00055 10.0623 4.41107 8.91114 5.18021C7.76001 5.94935 6.8628 7.04256 6.33296 8.3216C5.80313 9.60064 5.66447 11.0081 5.9345 12.3659C6.20454 13.7238 6.87116 14.971 7.85005 15.95L12.8001 20.9L17.7501 15.95ZM12.8001 13C12.2696 13 11.7609 12.7893 11.3858 12.4143C11.0108 12.0392 10.8001 11.5305 10.8001 11C10.8001 10.4696 11.0108 9.9609 11.3858 9.58583C11.7609 9.21076 12.2696 9.00004 12.8001 9.00004C13.3305 9.00004 13.8392 9.21076 14.2143 9.58583C14.5893 9.9609 14.8001 10.4696 14.8001 11C14.8001 11.5305 14.5893 12.0392 14.2143 12.4143C13.8392 12.7893 13.3305 13 12.8001 13Z" fill="white"/>
</svg>
