<svg width="25" height="24" viewBox="0 0 25 24" fill="none" xmlns="http://www.w3.org/2000/svg">
<g clip-path="url(#clip0)">
<path d="M24.2465 10.4055L22.9498 10.2833C22.7975 9.75754 22.5905 9.25654 22.3153 8.78029L23.1388 7.78429C23.3413 7.53979 23.3203 7.19179 23.1005 6.96604L21.482 5.32279C21.2623 5.09704 20.9038 5.07829 20.657 5.28004L19.6655 6.10504C19.1953 5.83654 18.6898 5.62204 18.1745 5.46979L18.0523 4.17454C18.0223 3.86254 17.7583 3.62479 17.4425 3.62479H15.422V1.79104C15.422 1.45504 15.1483 1.18054 14.8123 1.18054C14.4785 1.18054 14.2025 1.45579 14.2025 1.79104V4.84579H11.9C10.919 4.84579 9.98751 5.31004 9.39051 6.09229L6.88101 9.40954L2.66001 10.5645C1.56276 10.8638 0.807514 11.8598 0.801514 13.002V14.6205C0.807514 16.0133 1.94076 17.1368 3.32976 17.1368H3.65751C4.11426 18.84 5.86251 19.8413 7.56201 19.3853C8.65251 19.0868 9.51126 18.231 9.80376 17.1368H14.2018V22.2083C14.2018 22.545 14.474 22.818 14.8115 22.818C15.1468 22.818 15.4213 22.5458 15.4213 22.2083V20.742H17.4418C17.7583 20.742 18.02 20.505 18.0515 20.187L18.1738 18.8865C18.695 18.7328 19.1945 18.5273 19.6723 18.2565L20.6638 19.0815C20.9068 19.2848 21.2615 19.2645 21.4813 19.0448L23.1193 17.4038C23.3405 17.184 23.357 16.8255 23.1575 16.5765L22.334 15.5805C22.6003 15.1043 22.8163 14.6033 22.9685 14.0835L24.2473 13.9643C24.557 13.9305 24.8 13.6688 24.8 13.3508V11.01C24.8 10.6988 24.557 10.4363 24.2465 10.4055ZM6.72651 18.2805C5.64276 18.2805 4.75926 17.3948 4.75926 16.3065C4.75926 15.2198 5.64276 14.3333 6.72651 14.3333C7.81101 14.3333 8.69451 15.2198 8.69451 16.3065C8.69451 17.3948 7.81701 18.2805 6.72651 18.2805ZM14.201 15.9098H9.88851C9.67476 14.1563 8.08551 12.9173 6.34326 13.1243C4.89351 13.3005 3.74826 14.451 3.56526 15.9098H3.32151C2.60301 15.9158 2.01801 15.3353 2.01201 14.6145V13.002C2.01801 12.4163 2.40801 11.9025 2.97426 11.7435L7.39626 10.5338C7.52451 10.4978 7.64001 10.4243 7.71951 10.314L10.3633 6.83779C10.7293 6.35479 11.3015 6.07354 11.9045 6.07354H14.201V15.9098ZM15.419 9.58654C16.844 9.11029 18.3853 9.88579 18.8608 11.3213C19.3363 12.7568 18.563 14.2965 17.1298 14.7735C16.5763 14.9558 15.9725 14.9558 15.419 14.7735V9.58654ZM23.5813 12.7883L22.424 12.8978C22.1615 12.9225 21.9433 13.1175 21.8878 13.3748C21.7355 14.0588 21.4618 14.7068 21.0778 15.2933C20.9323 15.519 20.9503 15.8085 21.1205 16.014L21.8645 16.9193L21.0103 17.775L20.1095 17.0363C19.9033 16.8645 19.61 16.8465 19.3843 16.9995C18.806 17.3835 18.1595 17.6588 17.4785 17.805C17.216 17.859 17.027 18.0788 17.0023 18.3428L16.8928 19.515H15.4183V16.0388C17.5438 16.515 19.6528 15.1718 20.1215 13.0388C20.5978 10.9065 19.2575 8.79229 17.1305 8.31604C16.565 8.18779 15.9823 8.18779 15.4213 8.31604V4.85179H16.889L17.003 6.01879C17.0278 6.28129 17.2228 6.50179 17.4793 6.55654C18.1603 6.70879 18.8075 6.98404 19.3925 7.36279C19.6183 7.50904 19.907 7.49104 20.1118 7.32004L21.005 6.57529L21.8458 7.42429L21.0973 8.33479C20.9255 8.54254 20.9083 8.83579 21.0605 9.06154C21.4445 9.64204 21.7183 10.2893 21.8645 10.974C21.9245 11.2365 22.139 11.4263 22.4068 11.4503L23.5813 11.5665V12.7883Z" fill="#4BA82E"/>
</g>
<defs>
<clipPath id="clip0">
<rect width="24" height="24" fill="white" transform="translate(0.800049)"/>
</clipPath>
</defs>
</svg>
