<svg width="25" height="24" viewBox="0 0 25 24" fill="none" xmlns="http://www.w3.org/2000/svg">
<path d="M18.3 21C17.3718 21 16.4816 20.6313 15.8252 19.9749C15.1688 19.3185 14.8 18.4283 14.8 17.5C14.8 16.5717 15.1688 15.6815 15.8252 15.0251C16.4816 14.3687 17.3718 14 18.3 14C19.2283 14 20.1185 14.3687 20.7749 15.0251C21.4313 15.6815 21.8 16.5717 21.8 17.5C21.8 18.4283 21.4313 19.3185 20.7749 19.9749C20.1185 20.6313 19.2283 21 18.3 21ZM18.3 19C18.6979 19 19.0794 18.842 19.3607 18.5607C19.642 18.2794 19.8 17.8978 19.8 17.5C19.8 17.1022 19.642 16.7206 19.3607 16.4393C19.0794 16.158 18.6979 16 18.3 16C17.9022 16 17.5207 16.158 17.2394 16.4393C16.9581 16.7206 16.8 17.1022 16.8 17.5C16.8 17.8978 16.9581 18.2794 17.2394 18.5607C17.5207 18.842 17.9022 19 18.3 19ZM7.30005 10C6.84042 10 6.3853 9.90947 5.96066 9.73358C5.53602 9.55769 5.15018 9.29988 4.82517 8.97487C4.50017 8.64987 4.24236 8.26403 4.06647 7.83939C3.89058 7.41475 3.80005 6.95963 3.80005 6.5C3.80005 6.04037 3.89058 5.58525 4.06647 5.16061C4.24236 4.73597 4.50017 4.35013 4.82517 4.02513C5.15018 3.70012 5.53602 3.44231 5.96066 3.26642C6.3853 3.09053 6.84042 3 7.30005 3C8.22831 3 9.11855 3.36875 9.77492 4.02513C10.4313 4.6815 10.8 5.57174 10.8 6.5C10.8 7.42826 10.4313 8.3185 9.77492 8.97487C9.11855 9.63125 8.22831 10 7.30005 10ZM7.30005 8C7.69787 8 8.0794 7.84196 8.36071 7.56066C8.64201 7.27936 8.80005 6.89782 8.80005 6.5C8.80005 6.10218 8.64201 5.72064 8.36071 5.43934C8.0794 5.15804 7.69787 5 7.30005 5C6.90222 5 6.52069 5.15804 6.23939 5.43934C5.95808 5.72064 5.80005 6.10218 5.80005 6.5C5.80005 6.89782 5.95808 7.27936 6.23939 7.56066C6.52069 7.84196 6.90222 8 7.30005 8ZM19.871 3.515L21.285 4.929L5.73005 20.485L4.31605 19.071L19.87 3.515H19.871Z" fill="white"/>
</svg>
