<svg width="25" height="24" viewBox="0 0 25 24" fill="none" xmlns="http://www.w3.org/2000/svg">
<path d="M17.4474 14.081L16.3567 13.1047C17.7955 12.0128 18.6687 10.3026 18.6687 8.48341V5.58338V5.58333C18.6673 2.86203 16.4324 0.65 13.687 0.65H11.9186C9.17678 0.65 6.9712 2.85501 6.9712 5.58338V8.48341C6.9712 10.2971 7.83038 12.0056 9.25279 13.0951L8.15133 14.0796C6.95463 14.1344 5.66515 14.6358 4.67049 15.4263C3.66601 16.2246 2.95005 17.3283 2.95005 18.579V22.8106C2.95005 23.1119 3.19238 23.35 3.4918 23.35H22.1069C22.4051 23.35 22.65 23.1125 22.65 22.8106V18.5804C22.65 17.3318 21.935 16.2278 20.9308 15.4288C19.9364 14.6376 18.6465 14.1351 17.4474 14.081ZM8.66176 4.70464L8.66155 4.70495L8.0568 5.58638V5.58338C8.0568 3.45801 9.78999 1.7288 11.9207 1.7288H13.6891C15.8374 1.7288 17.5845 3.45876 17.5845 5.58338V5.62864L16.9375 4.70099L16.8554 4.75801L16.9374 4.70081L16.9375 4.70089C16.8454 4.56837 16.698 4.48418 16.5345 4.47131C16.3712 4.45846 16.2158 4.51699 16.1035 4.63186L16.175 4.70177L16.1038 4.63154C15.2239 5.52345 14.2108 5.92278 12.8 5.92278C11.3886 5.92278 10.3756 5.52346 9.49711 4.63234C9.38381 4.51661 9.22393 4.45833 9.06281 4.47207C8.90116 4.48586 8.75409 4.57115 8.66176 4.70464ZM9.6444 18.7991L9.64453 18.7994C9.70466 18.9327 9.81754 19.0365 9.95615 19.0871L9.95666 19.0872C10.0963 19.1373 10.2493 19.1277 10.3815 19.0624L10.3818 19.0622L10.5926 18.9573L10.907 19.9295L10.3551 22.2684H4.03356V18.5783C4.03356 17.7156 4.56271 16.8984 5.34493 16.2741C6.1068 15.666 7.09448 15.2532 8.02006 15.1686L9.6444 18.7991ZM14.6919 19.9381L15.0308 18.9694L15.2168 19.0622L15.2169 19.0623C15.3489 19.1279 15.5042 19.1365 15.6414 19.0872L15.642 19.087C15.7796 19.0365 15.8933 18.9329 15.9535 18.7994L15.9536 18.7991L17.5766 15.1686C18.5018 15.2533 19.4895 15.666 20.2514 16.2741C21.0337 16.8984 21.5631 17.7157 21.5631 18.5783V18.5784L21.5651 22.2684H15.2267L14.6919 19.9381ZM15.5763 13.859L16.5786 14.7537L15.1939 17.8455L13.5765 17.0405L15.5763 13.859ZM11.5761 18.4713L12.8008 17.8611L14.0535 18.4838L13.7438 19.3705H11.8659L11.5761 18.4713ZM12.8 16.2406L11.4817 14.1444C11.9131 14.244 12.3567 14.2956 12.8042 14.2956C13.2474 14.2956 13.6875 14.2451 14.1161 14.1472L12.8 16.2406ZM8.0568 8.48341V7.49924L9.20487 5.82653C10.1914 6.62721 11.3523 7.00157 12.8 7.00157C14.249 7.00157 15.4108 6.62565 16.3981 5.82318L17.5831 7.51869V8.48341C17.5831 11.0595 15.4625 13.2168 12.8049 13.2168C10.1543 13.2168 8.0568 11.0672 8.0568 8.48341ZM9.02078 14.7537L10.0232 13.8589L12.0243 17.0405L10.4048 17.8455L9.02078 14.7537ZM13.696 20.4472L14.1135 22.2684H11.47L11.9001 20.4472H13.696Z" fill="white" stroke="white" stroke-width="0.2"/>
<path d="M18.9756 20.9062H17.0759C16.8119 20.9062 16.5996 21.1155 16.5996 21.375C16.5996 21.6345 16.8119 21.8438 17.0759 21.8438H18.9756C19.2381 21.8438 19.4519 21.6345 19.4519 21.375C19.4519 21.1155 19.2381 20.9062 18.9756 20.9062Z" fill="white"/>
<path d="M20.8491 21.8438C21.1121 21.8438 21.3253 21.6339 21.3253 21.375C21.3253 21.1161 21.1121 20.9062 20.8491 20.9062C20.586 20.9062 20.3728 21.1161 20.3728 21.375C20.3728 21.6339 20.586 21.8438 20.8491 21.8438Z" fill="white"/>
</svg>
