<svg width="23" height="24" viewBox="0 0 23 24" fill="none" xmlns="http://www.w3.org/2000/svg">
<g clip-path="url(#clip0)">
<path d="M22.1 9.59998L20.4 9.39998C20.2 8.69998 19.9 7.99998 19.6 7.39998L20.7 6.09998C21 5.79998 20.9 5.29998 20.7 4.99998L18.5 2.79998C18.2 2.49998 17.7 2.49998 17.4 2.69998L16.1 3.79998C15.5 3.39998 14.8 3.19998 14.1 2.99998L13.9 1.29998C13.7 0.899976 13.4 0.599976 13 0.599976H9.8C9.4 0.599976 9.1 0.899976 9 1.29998L8.9 3.09998C8.2 3.29998 7.5 3.59998 6.9 3.89998L5.5 2.79998C5.2 2.49998 4.8 2.59998 4.5 2.89998L2.3 4.99998C2 5.29998 1.9 5.79998 2.2 6.09998L3.3 7.39998C2.9 7.99998 2.7 8.69998 2.5 9.39998L0.7 9.59998C0.3 9.59998 0 9.99998 0 10.4V10.9V13.1V13.6C0 14 0.3 14.4 0.7 14.4L2.5 14.6C2.7 15.3 3 16 3.3 16.6L2.2 17.9C1.9 18.2 2 18.7 2.2 19L4.4 21.2C4.7 21.5 5.2 21.5 5.5 21.3L6.8 20.2C7.4 20.6 8.1 20.8 8.8 21L9 22.7C9 23.1 9.4 23.4 9.8 23.4H13C13.4 23.4 13.8 23.1 13.8 22.7L14 21C14.7 20.8 15.4 20.5 16 20.2L17.3 21.3C17.6 21.6 18.1 21.5 18.4 21.2L20.6 19C20.9 18.7 20.9 18.2 20.7 17.9L19.5 16.6C19.9 16 20.1 15.3 20.3 14.6L22 14.4C22.4 14.4 22.7 14 22.7 13.6V13.1V10.9V10.4C22.8 9.99998 22.5 9.59998 22.1 9.59998ZM21.2 12.9L19.6 13.1C19.2 13.1 19 13.4 18.9 13.7C18.7 14.6 18.3 15.5 17.8 16.3C17.6 16.6 17.6 17 17.9 17.3L18.9 18.5L17.8 19.6L16.6 18.6C16.3 18.4 15.9 18.3 15.6 18.6C14.8 19.1 14 19.5 13 19.7C12.7 19.8 12.4 20.1 12.4 20.4L12.2 22H10.6L10.5 20.5C10.5 20.2 10.2 19.9 9.9 19.8C9 19.6 8.1 19.2 7.3 18.7C7 18.5 6.6 18.5 6.3 18.8L5.1 19.8L4 18.4L5 17.2C5.2 16.9 5.3 16.5 5 16.2C4.5 15.4 4.1 14.6 3.9 13.7C3.8 13.4 3.5 13.1 3.2 13.1L1.6 13V11.3L3.2 11.1C3.5 11.1 3.8 10.8 3.9 10.5C4.1 9.49998 4.5 8.59998 5 7.79998C5.2 7.49998 5.2 7.09998 4.9 6.79998L3.9 5.59998L5 4.49998L6.2 5.49998C6.5 5.69998 6.9 5.79998 7.2 5.49998C8 5.09998 8.9 4.69998 9.8 4.49998C10.1 4.39998 10.4 4.09998 10.4 3.79998L10.6 2.19998H12.2L12.3 3.69998C12.3 3.99998 12.6 4.29998 12.9 4.39998C13.8 4.59998 14.7 4.99998 15.5 5.49998C15.8 5.69998 16.2 5.69998 16.5 5.39998L17.7 4.39998L18.8 5.49998L17.8 6.69998C17.6 6.99998 17.5 7.39998 17.8 7.69998C18.3 8.49998 18.7 9.29998 18.9 10.2C19 10.5 19.3 10.8 19.6 10.8L21.2 10.9V12.9Z" fill="white"/>
<path d="M11.4 6.59998C8.4 6.59998 6 8.99998 6 12C6 15 8.4 17.4 11.4 17.4C14.4 17.4 16.8 15 16.8 12C16.8 8.99998 14.4 6.59998 11.4 6.59998ZM11.4 15.7C9.4 15.7 7.7 14.1 7.7 12C7.7 9.89998 9.3 8.29998 11.4 8.29998C13.5 8.29998 15.1 9.89998 15.1 12C15.1 14.1 13.4 15.7 11.4 15.7Z" fill="white"/>
</g>
<defs>
<clipPath id="clip0">
<rect width="22.8" height="22.8" fill="white" transform="translate(0 0.599976)"/>
</clipPath>
</defs>
</svg>
