<svg width="25" height="24" viewBox="0 0 25 24" fill="none" xmlns="http://www.w3.org/2000/svg">
<g clip-path="url(#clip0)">
<path d="M21.665 9.4215C21.4588 8.71875 20.8978 8.16825 20.1913 7.977C19.7218 4.08975 16.5778 1.125 12.8 1.125C9.0223 1.125 5.87905 4.08975 5.4088 7.97775C4.70305 8.169 4.14205 8.7195 3.93505 9.4215C3.8743 9.426 3.8143 9.43275 3.7543 9.441V4.84425C3.7543 4.45425 3.4393 4.1385 3.0508 4.1385C2.6623 4.1385 2.3473 4.45425 2.3473 4.84425V10.0057C1.4173 10.6695 0.800049 11.8215 0.800049 13.1295C0.800049 15.0908 2.1853 16.7025 3.93355 16.8383C4.14055 17.5387 4.6978 18.0877 5.4013 18.2805C5.7013 20.0317 7.2223 21.3682 9.05005 21.3682H9.2128C9.5068 22.2435 10.331 22.875 11.3 22.875H14.3C15.5143 22.875 16.5035 21.8827 16.5035 20.6625C16.5035 19.4422 15.5143 18.45 14.3 18.45H11.3C10.331 18.45 9.5068 19.0815 9.21205 19.956H9.0493C7.98655 19.956 7.08955 19.2262 6.8293 18.2407C7.65655 17.9535 8.2528 17.163 8.2528 16.2367V10.0223C8.2528 9.09225 7.6528 8.30025 6.82105 8.01675C7.26055 4.8975 9.7813 2.53725 12.8 2.53725C15.8188 2.53725 18.3403 4.8975 18.7783 8.01675C17.948 8.30025 17.3473 9.09225 17.3473 10.0223V16.2367C17.3473 17.406 18.2945 18.3563 19.457 18.3563H19.6445C20.5985 18.3563 21.4093 17.7157 21.665 16.8397C23.414 16.7025 24.8008 15.0922 24.8008 13.131C24.8 11.1682 23.414 9.558 21.665 9.4215ZM3.8473 15.4035C2.9293 15.2137 2.2063 14.25 2.2063 13.1295C2.2063 12.0098 2.9293 11.046 3.8473 10.857V15.4035ZM11.3 19.8615H14.3C14.7395 19.8615 15.0973 20.2208 15.0973 20.661C15.0973 21.1012 14.7395 21.4627 14.3 21.4627H11.3C10.8605 21.4627 10.5028 21.1035 10.5028 20.6625C10.5028 20.2215 10.8605 19.8615 11.3 19.8615ZM6.8473 10.023V16.2375C6.8473 16.626 6.53155 16.9418 6.1438 16.9418H5.9563C5.5678 16.9418 5.2528 16.6252 5.2528 16.2375V10.023C5.2528 9.63375 5.56855 9.3165 5.9563 9.3165H6.1438C6.5323 9.3165 6.8473 9.63375 6.8473 10.023ZM20.3473 16.236C20.3473 16.626 20.0323 16.941 19.6438 16.941H19.4563C19.0678 16.941 18.7528 16.6238 18.7528 16.236V10.0208C18.7528 9.6315 19.0678 9.31425 19.4563 9.31425H19.6438C20.0323 9.31425 20.3473 9.6315 20.3473 10.0208V16.236ZM21.7535 15.4035V10.857C22.6715 11.046 23.3945 12.0097 23.3945 13.131C23.3945 14.2507 22.6708 15.2145 21.7535 15.4035Z" fill="white"/>
</g>
<defs>
<clipPath id="clip0">
<rect width="24" height="24" fill="white" transform="translate(0.800049)"/>
</clipPath>
</defs>
</svg>
