<svg width="24" height="24" viewBox="0 0 24 24" fill="none" xmlns="http://www.w3.org/2000/svg">
<path d="M17.707 12.2928C17.316 11.9018 16.684 11.9018 16.293 12.2928L14.699 13.8868C13.96 13.6668 12.581 13.1668 11.707 12.2928C10.833 11.4188 10.333 10.0398 10.113 9.30076L11.707 7.70676C12.098 7.31576 12.098 6.68376 11.707 6.29276L7.70697 2.29276C7.31597 1.90176 6.68397 1.90176 6.29297 2.29276L3.58097 5.00476C3.20097 5.38476 2.98697 5.90676 2.99497 6.43976C3.01797 7.86376 3.39497 12.8098 7.29297 16.7078C11.191 20.6058 16.137 20.9818 17.562 21.0058C17.567 21.0058 17.585 21.0058 17.59 21.0058C18.118 21.0058 18.617 20.7978 18.995 20.4198L21.707 17.7078C22.098 17.3168 22.098 16.6848 21.707 16.2938L17.707 12.2928ZM17.58 19.0048C16.332 18.9838 12.062 18.6488 8.70697 15.2928C5.34097 11.9268 5.01497 7.64176 4.99497 6.41876L6.99997 4.41376L9.58597 6.99976L8.29297 8.29276C8.05397 8.53076 7.95197 8.87476 8.02097 9.20476C8.04497 9.31976 8.63197 12.0468 10.292 13.7068C11.952 15.3668 14.679 15.9538 14.794 15.9778C15.127 16.0488 15.468 15.9458 15.706 15.7068L17 14.4138L19.586 16.9998L17.58 19.0048Z" fill="#4BA82E"/>
</svg>
