<svg width="25" height="24" fill="none" xmlns="http://www.w3.org/2000/svg"><path d="M17.447 14.081l-1.09-.976a5.823 5.823 0 002.312-4.622v-2.9 0C18.667 2.862 16.432.65 13.687.65h-1.768A4.932 4.932 0 006.97 5.583v2.9c0 1.814.86 3.523 2.282 4.612l-1.102.985c-1.196.054-2.486.556-3.48 1.346-1.005.799-1.721 1.902-1.721 3.153v4.232c0 .3.242.539.542.539h18.615a.54.54 0 00.543-.54v-4.23c0-1.248-.715-2.352-1.72-3.151-.994-.791-2.284-1.294-3.483-1.348zM8.662 4.705h0l-.605.881v-.003A3.864 3.864 0 0111.92 1.73h1.768c2.148 0 3.895 1.73 3.895 3.854v.046l-.646-.928-.083.057.082-.057h0a.54.54 0 00-.402-.23.539.539 0 00-.431.16l.071.07-.071-.07c-.88.892-1.893 1.292-3.304 1.292-1.411 0-2.424-.4-3.303-1.29a.543.543 0 00-.835.072zm.982 14.094h0c.06.134.174.238.312.288h0c.14.05.293.04.426-.025h0l.21-.105.315.973-.552 2.338H4.034v-3.69c0-.862.529-1.68 1.31-2.304.763-.608 1.75-1.02 2.676-1.105l1.624 3.63zm5.048 1.14l.339-.97.186.093h0a.546.546 0 00.424.025h.001a.55.55 0 00.312-.288h0l1.623-3.63c.925.084 1.912.497 2.674 1.105.783.624 1.312 1.442 1.312 2.304v0l.002 3.69h-6.338l-.535-2.33zm.884-6.08l1.003.895-1.385 3.092-1.618-.805 2-3.182zm-4 4.612l1.225-.61 1.252.623-.31.886h-1.877l-.29-.899zm1.224-2.23l-1.318-2.097a5.88 5.88 0 002.634.003L12.8 16.241zM8.057 8.483V7.5l1.148-1.672c.986.8 2.147 1.175 3.595 1.175 1.449 0 2.61-.376 3.598-1.179l1.185 1.696v.964c0 2.576-2.12 4.734-4.778 4.734a4.742 4.742 0 01-4.748-4.734zm.964 6.27l1.002-.894 2.001 3.182-1.62.805-1.383-3.092zm4.675 5.694l.418 1.821H11.47l.43-1.82h1.796z" fill="#fff" stroke="#fff" stroke-width=".2"/><path d="M18.976 20.906h-1.9a.472.472 0 00-.476.469c0 .26.212.469.476.469h1.9c.262 0 .476-.21.476-.469a.473.473 0 00-.476-.469zM20.85 21.844c.262 0 .475-.21.475-.469a.473.473 0 00-.476-.469.473.473 0 00-.476.469c0 .259.213.469.476.469z" fill="#fff"/></svg>