<svg width="25" height="24" fill="none" xmlns="http://www.w3.org/2000/svg"><g clip-path="url(#clip0)"><path d="M24.247 10.405l-1.297-.122a6.722 6.722 0 00-.635-1.503l.824-.996a.608.608 0 00-.038-.818l-1.619-1.643a.611.611 0 00-.825-.043l-.991.825a7.049 7.049 0 00-1.492-.635l-.122-1.295a.61.61 0 00-.61-.55h-2.02V1.79a.611.611 0 00-.61-.61.613.613 0 00-.61.61v3.055H11.9c-.981 0-1.912.464-2.51 1.246L6.882 9.41 2.66 10.565a2.53 2.53 0 00-1.858 2.437v1.618a2.529 2.529 0 002.528 2.517h.328a3.183 3.183 0 003.904 2.248 3.193 3.193 0 002.242-2.248h4.398v5.071a.61.61 0 101.22 0v-1.466h2.02a.61.61 0 00.61-.555l.122-1.3a7.083 7.083 0 001.498-.63l.992.824a.606.606 0 00.817-.036l1.638-1.641a.621.621 0 00.038-.828l-.823-.995c.266-.477.482-.978.634-1.497l1.28-.12a.62.62 0 00.552-.613V11.01a.614.614 0 00-.553-.604zm-17.52 7.876a1.974 1.974 0 010-3.948 1.974 1.974 0 010 3.947zM14.2 15.91H9.889a3.192 3.192 0 00-3.546-2.786 3.2 3.2 0 00-2.778 2.786h-.243a1.302 1.302 0 01-1.31-1.296v-1.612a1.32 1.32 0 01.962-1.259l4.422-1.21a.59.59 0 00.324-.219l2.643-3.476a1.934 1.934 0 011.542-.764H14.2v9.836zm1.218-6.323a2.72 2.72 0 013.442 1.734 2.728 2.728 0 01-3.442 3.453V9.587zm8.162 3.201l-1.157.11a.61.61 0 00-.536.477 5.798 5.798 0 01-.81 1.918.609.609 0 00.043.721l.744.905-.855.856-.9-.739a.601.601 0 00-.726-.037 5.558 5.558 0 01-1.905.806.602.602 0 00-.477.538l-.11 1.172h-1.474v-3.476a3.936 3.936 0 004.704-3 3.955 3.955 0 00-2.991-4.723 3.845 3.845 0 00-1.71 0V4.852h1.468l.114 1.167c.025.262.22.483.476.538a5.887 5.887 0 011.913.806.604.604 0 00.72-.043l.893-.745.84.85-.748.91a.605.605 0 00-.037.727c.385.58.658 1.227.805 1.912.06.262.274.452.542.476l1.174.117v1.221z" fill="#4BA82E"/></g><defs><clipPath id="clip0"><path fill="#fff" transform="translate(.8)" d="M0 0h24v24H0z"/></clipPath></defs></svg>