<svg width="25" height="24" fill="none" xmlns="http://www.w3.org/2000/svg"><g clip-path="url(#clip0)"><path d="M21.665 9.421a2.118 2.118 0 00-1.474-1.444c-.47-3.887-3.613-6.852-7.391-6.852S5.879 4.09 5.409 7.978a2.121 2.121 0 00-1.474 1.444c-.06.004-.12.01-.18.019V4.844a.705.705 0 10-1.408 0v5.162C1.417 10.669.8 11.822.8 13.129c0 1.962 1.385 3.574 3.134 3.71.207.7.764 1.249 1.467 1.442a3.713 3.713 0 003.65 3.087h.162a2.206 2.206 0 002.087 1.507h3a2.21 2.21 0 002.203-2.212A2.21 2.21 0 0014.3 18.45h-3c-.969 0-1.793.631-2.088 1.506h-.163c-1.062 0-1.96-.73-2.22-1.715a2.124 2.124 0 001.424-2.004v-6.215c0-.93-.6-1.722-1.432-2.005.44-3.12 2.96-5.48 5.979-5.48s5.54 2.36 5.978 5.48a2.121 2.121 0 00-1.43 2.005v6.215c0 1.169.947 2.12 2.109 2.12h.188a2.11 2.11 0 002.02-1.517c1.749-.137 3.136-1.748 3.136-3.709-.001-1.963-1.387-3.573-3.136-3.71zM3.847 15.404c-.918-.19-1.64-1.153-1.64-2.274 0-1.12.722-2.083 1.64-2.272v4.546zm7.453 4.458h3a.8.8 0 010 1.602h-3a.8.8 0 010-1.602zm-4.453-9.838v6.215a.705.705 0 01-.703.704h-.188a.705.705 0 01-.703-.704v-6.215c0-.39.316-.707.703-.707h.188c.388 0 .703.318.703.707zm13.5 6.213c0 .39-.315.705-.703.705h-.188a.705.705 0 01-.703-.705v-6.215c0-.39.315-.707.703-.707h.188c.388 0 .703.318.703.707v6.215zm1.406-.833v-4.546c.919.189 1.642 1.153 1.642 2.274 0 1.12-.724 2.083-1.642 2.272z" fill="#fff"/></g><defs><clipPath id="clip0"><path fill="#fff" transform="translate(.8)" d="M0 0h24v24H0z"/></clipPath></defs></svg>