<svg width="23" height="24" fill="none" xmlns="http://www.w3.org/2000/svg"><g clip-path="url(#clip0)" fill="#fff"><path d="M22.1 9.6l-1.7-.2c-.2-.7-.5-1.4-.8-2l1.1-1.3c.3-.3.2-.8 0-1.1l-2.2-2.2c-.3-.3-.8-.3-1.1-.1l-1.3 1.1c-.6-.4-1.3-.6-2-.8l-.2-1.7c-.2-.4-.5-.7-.9-.7H9.8c-.4 0-.7.3-.8.7l-.1 1.8c-.7.2-1.4.5-2 .8L5.5 2.8c-.3-.3-.7-.2-1 .1L2.3 5c-.3.3-.4.8-.1 1.1l1.1 1.3c-.4.6-.6 1.3-.8 2l-1.8.2c-.4 0-.7.4-.7.8v3.2c0 .4.3.8.7.8l1.8.2c.2.7.5 1.4.8 2l-1.1 1.3c-.3.3-.2.8 0 1.1l2.2 2.2c.3.3.8.3 1.1.1l1.3-1.1c.6.4 1.3.6 2 .8l.2 1.7c0 .4.4.7.8.7H13c.4 0 .8-.3.8-.7L14 21c.7-.2 1.4-.5 2-.8l1.3 1.1c.3.3.8.2 1.1-.1l2.2-2.2c.3-.3.3-.8.1-1.1l-1.2-1.3c.4-.6.6-1.3.8-2l1.7-.2c.4 0 .7-.4.7-.8v-3.2c.1-.4-.2-.8-.6-.8zm-.9 3.3l-1.6.2c-.4 0-.6.3-.7.6-.2.9-.6 1.8-1.1 2.6-.2.3-.2.7.1 1l1 1.2-1.1 1.1-1.2-1c-.3-.2-.7-.3-1 0-.8.5-1.6.9-2.6 1.1-.3.1-.6.4-.6.7l-.2 1.6h-1.6l-.1-1.5c0-.3-.3-.6-.6-.7-.9-.2-1.8-.6-2.6-1.1-.3-.2-.7-.2-1 .1l-1.2 1L4 18.4l1-1.2c.2-.3.3-.7 0-1-.5-.8-.9-1.6-1.1-2.5-.1-.3-.4-.6-.7-.6L1.6 13v-1.7l1.6-.2c.3 0 .6-.3.7-.6.2-1 .6-1.9 1.1-2.7.2-.3.2-.7-.1-1l-1-1.2L5 4.5l1.2 1c.3.2.7.3 1 0 .8-.4 1.7-.8 2.6-1 .3-.1.6-.4.6-.7l.2-1.6h1.6l.1 1.5c0 .3.3.6.6.7.9.2 1.8.6 2.6 1.1.3.2.7.2 1-.1l1.2-1 1.1 1.1-1 1.2c-.2.3-.3.7 0 1 .5.8.9 1.6 1.1 2.5.1.3.4.6.7.6l1.6.1v2z"/><path d="M11.4 6.6C8.4 6.6 6 9 6 12c0 3 2.4 5.4 5.4 5.4 3 0 5.4-2.4 5.4-5.4 0-3-2.4-5.4-5.4-5.4zm0 9.1c-2 0-3.7-1.6-3.7-3.7s1.6-3.7 3.7-3.7 3.7 1.6 3.7 3.7-1.7 3.7-3.7 3.7z"/></g><defs><clipPath id="clip0"><path fill="#fff" transform="translate(0 .6)" d="M0 0h22.8v22.8H0z"/></clipPath></defs></svg>